<svg xmlns="http://www.w3.org/2000/svg" xmlns:xlink="http://www.w3.org/1999/xlink" width="500" zoomAndPan="magnify" viewBox="0 0 375 374.999991" height="500" preserveAspectRatio="xMidYMid meet" version="1.0"><defs><clipPath id="bb4fd63dbd"><path d="M 179 21.144531 L 196 21.144531 L 196 38 L 179 38 Z M 179 21.144531 " clip-rule="nonzero"/></clipPath><clipPath id="8ff3d56d7d"><path d="M 127.996094 240.546875 L 247.246094 240.546875 L 247.246094 359.796875 L 127.996094 359.796875 Z M 127.996094 240.546875 " clip-rule="nonzero"/></clipPath></defs><g clip-path="url(#bb4fd63dbd)"><path fill="#000000" d="M 195.699219 29.34375 C 195.699219 29.882812 195.644531 30.417969 195.542969 30.945312 C 195.4375 31.472656 195.28125 31.984375 195.074219 32.484375 C 194.867188 32.980469 194.617188 33.453125 194.316406 33.902344 C 194.019531 34.347656 193.679688 34.761719 193.296875 35.144531 C 192.917969 35.523438 192.503906 35.863281 192.054688 36.164062 C 191.609375 36.460938 191.136719 36.714844 190.640625 36.921875 C 190.140625 37.128906 189.628906 37.28125 189.101562 37.386719 C 188.574219 37.492188 188.039062 37.546875 187.503906 37.546875 C 186.964844 37.546875 186.429688 37.492188 185.902344 37.386719 C 185.375 37.28125 184.863281 37.128906 184.367188 36.921875 C 183.867188 36.714844 183.398438 36.460938 182.949219 36.164062 C 182.5 35.863281 182.085938 35.523438 181.707031 35.144531 C 181.328125 34.761719 180.988281 34.347656 180.6875 33.902344 C 180.390625 33.453125 180.136719 32.980469 179.929688 32.484375 C 179.722656 31.984375 179.570312 31.472656 179.464844 30.945312 C 179.359375 30.417969 179.308594 29.882812 179.308594 29.34375 C 179.308594 28.808594 179.359375 28.273438 179.464844 27.746094 C 179.570312 27.21875 179.722656 26.703125 179.929688 26.207031 C 180.136719 25.710938 180.390625 25.238281 180.6875 24.789062 C 180.988281 24.34375 181.328125 23.929688 181.707031 23.546875 C 182.085938 23.167969 182.5 22.828125 182.949219 22.527344 C 183.398438 22.226562 183.867188 21.976562 184.367188 21.769531 C 184.863281 21.5625 185.375 21.40625 185.902344 21.304688 C 186.429688 21.199219 186.964844 21.144531 187.503906 21.144531 C 188.039062 21.144531 188.574219 21.199219 189.101562 21.304688 C 189.628906 21.40625 190.140625 21.5625 190.640625 21.769531 C 191.136719 21.976562 191.609375 22.226562 192.054688 22.527344 C 192.503906 22.828125 192.917969 23.167969 193.296875 23.546875 C 193.679688 23.929688 194.019531 24.34375 194.316406 24.789062 C 194.617188 25.238281 194.867188 25.710938 195.074219 26.207031 C 195.28125 26.703125 195.4375 27.21875 195.542969 27.746094 C 195.644531 28.273438 195.699219 28.808594 195.699219 29.34375 Z M 195.699219 29.34375 " fill-opacity="1" fill-rule="nonzero"/></g><path fill="#000000" d="M 132.65625 46.441406 C 133.003906 46.855469 133.304688 47.296875 133.566406 47.769531 C 133.824219 48.242188 134.035156 48.734375 134.195312 49.246094 C 134.355469 49.761719 134.46875 50.285156 134.527344 50.820312 C 134.585938 51.355469 134.589844 51.890625 134.542969 52.429688 C 134.496094 52.964844 134.398438 53.492188 134.246094 54.007812 C 134.097656 54.523438 133.898438 55.023438 133.648438 55.5 C 133.398438 55.976562 133.109375 56.425781 132.769531 56.847656 C 132.433594 57.265625 132.058594 57.648438 131.648438 57.996094 C 131.234375 58.339844 130.792969 58.644531 130.320312 58.902344 C 129.847656 59.160156 129.355469 59.371094 128.84375 59.535156 C 128.328125 59.695312 127.804688 59.804688 127.269531 59.863281 C 126.734375 59.921875 126.199219 59.929688 125.664062 59.882812 C 125.128906 59.835938 124.601562 59.738281 124.085938 59.585938 C 123.566406 59.433594 123.070312 59.234375 122.59375 58.988281 C 122.117188 58.738281 121.667969 58.445312 121.25 58.109375 C 120.828125 57.769531 120.445312 57.394531 120.101562 56.984375 C 119.753906 56.570312 119.453125 56.128906 119.191406 55.65625 C 118.933594 55.183594 118.722656 54.691406 118.5625 54.179688 C 118.398438 53.664062 118.289062 53.140625 118.230469 52.605469 C 118.171875 52.070312 118.167969 51.535156 118.214844 51 C 118.261719 50.460938 118.359375 49.933594 118.507812 49.417969 C 118.660156 48.902344 118.859375 48.402344 119.109375 47.925781 C 119.355469 47.449219 119.648438 47 119.988281 46.582031 C 120.324219 46.160156 120.699219 45.777344 121.109375 45.429688 C 121.523438 45.085938 121.964844 44.78125 122.4375 44.523438 C 122.90625 44.265625 123.402344 44.054688 123.914062 43.890625 C 124.425781 43.730469 124.953125 43.621094 125.484375 43.5625 C 126.019531 43.503906 126.558594 43.496094 127.09375 43.542969 C 127.628906 43.589844 128.15625 43.691406 128.671875 43.839844 C 129.1875 43.992188 129.6875 44.191406 130.164062 44.441406 C 130.640625 44.6875 131.089844 44.980469 131.507812 45.320312 C 131.929688 45.65625 132.3125 46.03125 132.65625 46.441406 Z M 132.65625 46.441406 " fill-opacity="1" fill-rule="nonzero"/><path fill="#000000" d="M 95.304688 99.957031 C 95.832031 100.050781 96.347656 100.195312 96.851562 100.390625 C 97.351562 100.585938 97.828125 100.828125 98.285156 101.117188 C 98.738281 101.40625 99.160156 101.738281 99.546875 102.109375 C 99.9375 102.484375 100.285156 102.890625 100.59375 103.332031 C 100.902344 103.773438 101.164062 104.238281 101.382812 104.730469 C 101.597656 105.226562 101.765625 105.734375 101.882812 106.257812 C 101.996094 106.785156 102.0625 107.316406 102.074219 107.855469 C 102.085938 108.394531 102.042969 108.929688 101.949219 109.457031 C 101.859375 109.988281 101.714844 110.503906 101.519531 111.007812 C 101.324219 111.507812 101.082031 111.984375 100.792969 112.441406 C 100.503906 112.894531 100.171875 113.316406 99.800781 113.703125 C 99.425781 114.09375 99.019531 114.441406 98.582031 114.75 C 98.140625 115.058594 97.671875 115.324219 97.179688 115.539062 C 96.6875 115.757812 96.179688 115.921875 95.652344 116.039062 C 95.128906 116.15625 94.597656 116.21875 94.058594 116.230469 C 93.519531 116.242188 92.984375 116.203125 92.457031 116.109375 C 91.925781 116.015625 91.410156 115.871094 90.910156 115.675781 C 90.40625 115.480469 89.929688 115.238281 89.476562 114.949219 C 89.019531 114.660156 88.601562 114.328125 88.210938 113.957031 C 87.824219 113.585938 87.472656 113.179688 87.164062 112.738281 C 86.855469 112.296875 86.59375 111.828125 86.378906 111.335938 C 86.160156 110.84375 85.992188 110.335938 85.878906 109.808594 C 85.761719 109.28125 85.695312 108.75 85.683594 108.210938 C 85.671875 107.675781 85.714844 107.140625 85.808594 106.609375 C 85.902344 106.078125 86.046875 105.5625 86.242188 105.0625 C 86.4375 104.558594 86.679688 104.082031 86.96875 103.628906 C 87.257812 103.171875 87.585938 102.753906 87.960938 102.363281 C 88.332031 101.972656 88.738281 101.625 89.179688 101.316406 C 89.621094 101.007812 90.085938 100.746094 90.578125 100.527344 C 91.070312 100.3125 91.582031 100.144531 92.105469 100.027344 C 92.632812 99.910156 93.164062 99.847656 93.699219 99.835938 C 94.238281 99.824219 94.773438 99.863281 95.304688 99.957031 Z M 95.304688 99.957031 " fill-opacity="1" fill-rule="nonzero"/><path fill="#000000" d="M 112.265625 167.964844 C 112.53125 168.433594 112.753906 168.921875 112.925781 169.429688 C 113.101562 169.941406 113.222656 170.460938 113.292969 170.996094 C 113.363281 171.527344 113.378906 172.066406 113.34375 172.601562 C 113.308594 173.140625 113.222656 173.667969 113.082031 174.1875 C 112.941406 174.707031 112.753906 175.210938 112.515625 175.691406 C 112.277344 176.175781 111.996094 176.628906 111.667969 177.058594 C 111.339844 177.484375 110.972656 177.875 110.570312 178.230469 C 110.164062 178.585938 109.730469 178.898438 109.265625 179.167969 C 108.796875 179.4375 108.308594 179.65625 107.800781 179.832031 C 107.289062 180.003906 106.769531 180.125 106.234375 180.195312 C 105.703125 180.265625 105.167969 180.28125 104.628906 180.246094 C 104.09375 180.210938 103.5625 180.125 103.042969 179.984375 C 102.523438 179.847656 102.023438 179.65625 101.539062 179.417969 C 101.058594 179.183594 100.601562 178.898438 100.175781 178.570312 C 99.75 178.242188 99.359375 177.878906 99.003906 177.472656 C 98.648438 177.066406 98.335938 176.632812 98.066406 176.164062 C 97.796875 175.699219 97.578125 175.210938 97.40625 174.703125 C 97.230469 174.191406 97.109375 173.667969 97.039062 173.136719 C 96.96875 172.601562 96.953125 172.066406 96.988281 171.53125 C 97.023438 170.992188 97.109375 170.464844 97.25 169.941406 C 97.386719 169.421875 97.578125 168.921875 97.816406 168.4375 C 98.050781 167.957031 98.335938 167.5 98.664062 167.074219 C 98.992188 166.648438 99.355469 166.253906 99.761719 165.902344 C 100.167969 165.546875 100.601562 165.234375 101.066406 164.964844 C 101.535156 164.695312 102.019531 164.472656 102.53125 164.300781 C 103.039062 164.128906 103.5625 164.007812 104.097656 163.9375 C 104.628906 163.867188 105.164062 163.847656 105.703125 163.882812 C 106.238281 163.917969 106.765625 164.003906 107.285156 164.144531 C 107.808594 164.285156 108.308594 164.472656 108.789062 164.710938 C 109.273438 164.949219 109.726562 165.230469 110.15625 165.558594 C 110.582031 165.886719 110.972656 166.253906 111.328125 166.660156 C 111.683594 167.0625 111.996094 167.5 112.265625 167.964844 Z M 112.265625 167.964844 " fill-opacity="1" fill-rule="nonzero"/><path fill="#000000" d="M 157.765625 206.15625 C 158.269531 206.339844 158.753906 206.570312 159.214844 206.851562 C 159.675781 207.128906 160.101562 207.449219 160.5 207.816406 C 160.894531 208.179688 161.253906 208.578125 161.570312 209.011719 C 161.890625 209.445312 162.164062 209.90625 162.390625 210.394531 C 162.617188 210.882812 162.796875 211.390625 162.921875 211.910156 C 163.050781 212.433594 163.125 212.964844 163.148438 213.503906 C 163.171875 214.042969 163.144531 214.578125 163.0625 215.109375 C 162.980469 215.640625 162.847656 216.160156 162.664062 216.664062 C 162.480469 217.171875 162.246094 217.65625 161.96875 218.113281 C 161.6875 218.574219 161.367188 219.003906 161.003906 219.402344 C 160.640625 219.796875 160.242188 220.15625 159.808594 220.472656 C 159.375 220.792969 158.914062 221.066406 158.425781 221.292969 C 157.9375 221.519531 157.433594 221.699219 156.910156 221.824219 C 156.386719 221.953125 155.855469 222.03125 155.316406 222.054688 C 154.78125 222.078125 154.246094 222.046875 153.714844 221.964844 C 153.183594 221.882812 152.664062 221.75 152.15625 221.566406 C 151.652344 221.382812 151.167969 221.148438 150.707031 220.871094 C 150.25 220.589844 149.820312 220.269531 149.421875 219.90625 C 149.027344 219.542969 148.667969 219.144531 148.351562 218.710938 C 148.03125 218.273438 147.761719 217.8125 147.53125 217.324219 C 147.304688 216.835938 147.128906 216.332031 147 215.808594 C 146.871094 215.285156 146.796875 214.753906 146.773438 214.21875 C 146.75 213.679688 146.777344 213.144531 146.859375 212.613281 C 146.941406 212.082031 147.074219 211.5625 147.257812 211.054688 C 147.445312 210.550781 147.675781 210.066406 147.953125 209.605469 C 148.234375 209.144531 148.554688 208.71875 148.917969 208.320312 C 149.28125 207.921875 149.679688 207.566406 150.113281 207.246094 C 150.550781 206.929688 151.011719 206.65625 151.496094 206.429688 C 151.984375 206.199219 152.492188 206.023438 153.015625 205.894531 C 153.535156 205.765625 154.066406 205.691406 154.605469 205.667969 C 155.140625 205.644531 155.675781 205.671875 156.207031 205.753906 C 156.742188 205.835938 157.257812 205.96875 157.765625 206.15625 Z M 157.765625 206.15625 " fill-opacity="1" fill-rule="nonzero"/><path fill="#000000" d="M 253.851562 45.308594 C 254.265625 45.65625 254.640625 46.039062 254.976562 46.457031 C 255.3125 46.878906 255.605469 47.328125 255.855469 47.804688 C 256.101562 48.28125 256.300781 48.78125 256.453125 49.296875 C 256.601562 49.8125 256.703125 50.339844 256.75 50.875 C 256.796875 51.414062 256.789062 51.949219 256.730469 52.484375 C 256.671875 53.019531 256.5625 53.542969 256.398438 54.058594 C 256.238281 54.570312 256.027344 55.0625 255.769531 55.535156 C 255.507812 56.007812 255.207031 56.449219 254.859375 56.863281 C 254.515625 57.273438 254.132812 57.648438 253.710938 57.984375 C 253.292969 58.324219 252.84375 58.617188 252.367188 58.863281 C 251.890625 59.113281 251.394531 59.3125 250.875 59.464844 C 250.359375 59.613281 249.832031 59.714844 249.296875 59.761719 C 248.761719 59.808594 248.226562 59.800781 247.691406 59.742188 C 247.15625 59.683594 246.632812 59.574219 246.117188 59.410156 C 245.605469 59.25 245.113281 59.039062 244.640625 58.78125 C 244.167969 58.523438 243.726562 58.21875 243.3125 57.871094 C 242.902344 57.527344 242.527344 57.144531 242.191406 56.722656 C 241.855469 56.304688 241.5625 55.855469 241.3125 55.378906 C 241.0625 54.898438 240.863281 54.402344 240.714844 53.886719 C 240.5625 53.371094 240.464844 52.84375 240.417969 52.304688 C 240.371094 51.769531 240.378906 51.234375 240.4375 50.699219 C 240.496094 50.164062 240.605469 49.640625 240.765625 49.125 C 240.929688 48.613281 241.140625 48.121094 241.398438 47.648438 C 241.65625 47.175781 241.960938 46.734375 242.304688 46.320312 C 242.652344 45.90625 243.035156 45.535156 243.453125 45.195312 C 243.875 44.859375 244.320312 44.566406 244.800781 44.316406 C 245.277344 44.070312 245.773438 43.871094 246.289062 43.71875 C 246.808594 43.566406 247.332031 43.46875 247.871094 43.421875 C 248.40625 43.375 248.941406 43.382812 249.476562 43.441406 C 250.011719 43.5 250.535156 43.609375 251.046875 43.769531 C 251.5625 43.933594 252.054688 44.144531 252.527344 44.402344 C 252.996094 44.660156 253.441406 44.964844 253.851562 45.308594 Z M 253.851562 45.308594 " fill-opacity="1" fill-rule="nonzero"/><path fill="#000000" d="M 289.152344 106.464844 C 289.246094 106.996094 289.289062 107.53125 289.277344 108.070312 C 289.265625 108.609375 289.199219 109.140625 289.082031 109.664062 C 288.96875 110.191406 288.800781 110.699219 288.585938 111.191406 C 288.367188 111.6875 288.105469 112.152344 287.796875 112.59375 C 287.488281 113.035156 287.140625 113.441406 286.75 113.8125 C 286.359375 114.1875 285.941406 114.515625 285.484375 114.804688 C 285.03125 115.097656 284.554688 115.339844 284.054688 115.535156 C 283.550781 115.726562 283.035156 115.871094 282.503906 115.964844 C 281.976562 116.058594 281.441406 116.101562 280.902344 116.089844 C 280.367188 116.078125 279.832031 116.011719 279.308594 115.898438 C 278.78125 115.78125 278.273438 115.613281 277.78125 115.398438 C 277.289062 115.179688 276.820312 114.917969 276.382812 114.609375 C 275.941406 114.300781 275.535156 113.949219 275.160156 113.5625 C 274.789062 113.171875 274.457031 112.75 274.167969 112.296875 C 273.878906 111.84375 273.636719 111.363281 273.441406 110.863281 C 273.25 110.363281 273.105469 109.84375 273.011719 109.316406 C 272.917969 108.785156 272.875 108.25 272.886719 107.710938 C 272.898438 107.175781 272.964844 106.640625 273.078125 106.117188 C 273.195312 105.589844 273.363281 105.082031 273.578125 104.589844 C 273.796875 104.097656 274.058594 103.628906 274.367188 103.1875 C 274.675781 102.746094 275.023438 102.339844 275.414062 101.96875 C 275.800781 101.597656 276.222656 101.265625 276.679688 100.976562 C 277.132812 100.6875 277.609375 100.445312 278.109375 100.25 C 278.613281 100.054688 279.128906 99.910156 279.660156 99.816406 C 280.1875 99.722656 280.722656 99.679688 281.261719 99.691406 C 281.796875 99.703125 282.328125 99.769531 282.855469 99.886719 C 283.382812 100 283.890625 100.167969 284.382812 100.386719 C 284.875 100.601562 285.34375 100.863281 285.78125 101.175781 C 286.222656 101.484375 286.628906 101.832031 287.003906 102.21875 C 287.375 102.609375 287.707031 103.03125 287.996094 103.484375 C 288.285156 103.9375 288.527344 104.417969 288.71875 104.917969 C 288.914062 105.421875 289.058594 105.9375 289.152344 106.464844 Z M 289.152344 106.464844 " fill-opacity="1" fill-rule="nonzero"/><path fill="#000000" d="M 245.234375 177.746094 C 249.605469 177.746094 252.617188 176.742188 254.566406 175.535156 C 255.789062 174.785156 256.570312 173.976562 257.027344 173.378906 C 257.15625 173.234375 257.277344 173.074219 257.378906 172.898438 L 264.414062 160.703125 C 264.519531 160.523438 264.597656 160.339844 264.660156 160.148438 C 264.964844 159.402344 265.300781 158.21875 265.296875 156.628906 C 265.300781 154.199219 264.523438 150.941406 262.066406 146.964844 C 260.09375 143.769531 257.050781 140.085938 252.398438 135.855469 C 260.316406 132.613281 265.09375 129.300781 268.027344 126.246094 C 271.496094 122.65625 272.257812 119.300781 272.230469 117.519531 C 272.230469 117.414062 272.226562 117.324219 272.222656 117.234375 C 272.234375 117.03125 272.222656 116.824219 272.183594 116.617188 L 269.742188 102.75 C 269.707031 102.5625 269.65625 102.382812 269.589844 102.214844 C 269.175781 100.90625 267.96875 98.523438 264.832031 96.445312 C 261.140625 93.976562 255.042969 91.859375 244.566406 91.445312 C 248.996094 83.011719 250.40625 77.007812 250.414062 72.652344 C 250.417969 69.769531 249.769531 67.625 249 66.175781 C 248.585938 65.382812 248.144531 64.8125 247.78125 64.417969 C 247.664062 64.261719 247.523438 64.113281 247.367188 63.984375 L 236.585938 54.933594 C 236.527344 54.878906 236.457031 54.84375 236.390625 54.800781 C 236.328125 54.753906 236.257812 54.703125 236.179688 54.652344 C 236.152344 54.640625 236.128906 54.621094 236.101562 54.605469 C 235.125 53.988281 233.257812 53.152344 230.464844 53.164062 C 227.941406 53.164062 224.730469 53.820312 220.742188 55.6875 C 217.675781 57.128906 214.132812 59.289062 210.039062 62.457031 C 207.941406 52.808594 205.035156 47.25 202.140625 43.949219 C 199.332031 40.714844 196.472656 39.839844 195.042969 39.667969 C 194.878906 39.640625 194.710938 39.621094 194.539062 39.621094 L 180.464844 39.621094 C 180.296875 39.621094 180.128906 39.640625 179.964844 39.667969 C 178.535156 39.839844 175.671875 40.714844 172.867188 43.949219 C 169.957031 47.269531 167.035156 52.863281 164.9375 62.601562 C 160.835938 59.425781 157.289062 57.257812 154.214844 55.820312 C 150.230469 53.949219 147.015625 53.292969 144.492188 53.292969 C 141.707031 53.28125 139.835938 54.117188 138.859375 54.734375 C 138.832031 54.75 138.808594 54.769531 138.78125 54.785156 C 138.699219 54.839844 138.621094 54.890625 138.554688 54.9375 C 138.492188 54.980469 138.429688 55.015625 138.371094 55.0625 L 127.589844 64.113281 C 127.5 64.191406 127.425781 64.28125 127.34375 64.367188 C 127.335938 64.375 127.328125 64.382812 127.320312 64.390625 C 127.273438 64.441406 127.222656 64.488281 127.179688 64.542969 C 126.816406 64.9375 126.375 65.511719 125.957031 66.304688 C 125.1875 67.753906 124.539062 69.898438 124.542969 72.78125 C 124.550781 77.140625 125.960938 83.140625 130.394531 91.574219 C 119.914062 91.992188 113.816406 94.109375 110.128906 96.574219 C 106.976562 98.660156 105.773438 101.054688 105.363281 102.355469 C 105.300781 102.523438 105.25 102.699219 105.21875 102.882812 L 102.773438 116.746094 C 102.738281 116.949219 102.726562 117.152344 102.734375 117.351562 C 102.730469 117.445312 102.726562 117.539062 102.726562 117.648438 C 102.699219 119.429688 103.460938 122.785156 106.929688 126.375 C 109.863281 129.429688 114.636719 132.742188 122.558594 135.984375 C 117.90625 140.214844 114.859375 143.902344 112.890625 147.09375 C 110.433594 151.070312 109.65625 154.332031 109.660156 156.757812 C 109.65625 158.351562 109.992188 159.539062 110.300781 160.28125 C 110.359375 160.472656 110.441406 160.65625 110.542969 160.832031 L 117.578125 173.027344 C 117.679688 173.203125 117.796875 173.359375 117.925781 173.503906 C 118.386719 174.101562 119.164062 174.910156 120.390625 175.664062 C 122.339844 176.871094 125.351562 177.875 129.726562 177.875 C 129.738281 177.875 129.746094 177.875 129.757812 177.875 C 133.644531 177.871094 138.625 177.109375 145.101562 175.039062 C 144.640625 178.417969 144.4375 181.378906 144.4375 183.964844 C 144.433594 191.066406 145.945312 195.480469 147.773438 198.195312 C 149.03125 200.082031 150.421875 201.066406 151.320312 201.539062 C 151.488281 201.644531 151.664062 201.734375 151.855469 201.800781 L 165.082031 206.617188 C 165.273438 206.6875 165.46875 206.734375 165.664062 206.761719 C 166.113281 206.859375 166.703125 206.945312 167.425781 206.945312 C 167.441406 206.945312 167.457031 206.945312 167.472656 206.945312 C 169.675781 206.945312 172.957031 206.109375 176.75 203.128906 C 179.9375 200.636719 183.546875 196.667969 187.519531 190.355469 C 191.457031 196.59375 195.039062 200.523438 198.207031 203 C 202.003906 205.980469 205.28125 206.816406 207.488281 206.816406 C 207.5 206.816406 207.515625 206.816406 207.53125 206.816406 C 208.257812 206.816406 208.847656 206.730469 209.296875 206.632812 C 209.492188 206.605469 209.683594 206.558594 209.875 206.488281 L 223.101562 201.671875 C 223.292969 201.601562 223.46875 201.515625 223.636719 201.410156 C 224.535156 200.9375 225.925781 199.953125 227.183594 198.066406 C 229.011719 195.347656 230.523438 190.9375 230.519531 183.835938 C 230.519531 181.25 230.3125 178.289062 229.855469 174.910156 C 236.332031 176.980469 241.3125 177.742188 245.199219 177.746094 C 245.210938 177.746094 245.222656 177.746094 245.234375 177.746094 Z M 197.746094 181.382812 L 204.585938 200.179688 C 203.792969 199.796875 202.867188 199.234375 201.792969 198.402344 C 198.789062 196.058594 194.738281 191.554688 190.042969 183.207031 C 189.253906 181.804688 187.476562 181.308594 186.074219 182.097656 C 185.492188 182.425781 185.066406 182.925781 184.824219 183.496094 C 180.167969 191.742188 176.152344 196.207031 173.164062 198.53125 C 172.09375 199.363281 171.164062 199.925781 170.375 200.308594 L 177.210938 181.511719 L 158.695312 174.769531 L 151.859375 193.566406 C 151.042969 191.757812 150.265625 188.773438 150.265625 183.964844 C 150.265625 180.632812 150.640625 176.441406 151.621094 171.214844 C 151.625 171.199219 151.628906 171.179688 151.628906 171.164062 C 151.640625 171.101562 151.648438 171.039062 151.65625 170.976562 C 151.660156 170.941406 151.664062 170.90625 151.664062 170.867188 C 151.667969 170.8125 151.671875 170.753906 151.671875 170.695312 C 151.671875 170.65625 151.671875 170.613281 151.667969 170.574219 C 151.667969 170.523438 151.664062 170.472656 151.660156 170.421875 C 151.65625 170.371094 151.652344 170.324219 151.644531 170.277344 C 151.636719 170.234375 151.632812 170.191406 151.621094 170.144531 C 151.613281 170.09375 151.601562 170.039062 151.589844 169.988281 C 151.578125 169.949219 151.570312 169.910156 151.558594 169.871094 C 151.542969 169.816406 151.523438 169.761719 151.503906 169.707031 C 151.5 169.6875 151.492188 169.667969 151.488281 169.648438 C 151.480469 169.628906 151.472656 169.613281 151.464844 169.59375 C 151.441406 169.542969 151.421875 169.492188 151.398438 169.441406 C 151.378906 169.402344 151.359375 169.363281 151.339844 169.324219 C 151.316406 169.28125 151.292969 169.238281 151.269531 169.199219 C 151.242188 169.15625 151.21875 169.113281 151.191406 169.070312 C 151.167969 169.035156 151.140625 169.003906 151.117188 168.96875 C 151.085938 168.925781 151.054688 168.882812 151.023438 168.839844 C 150.996094 168.808594 150.96875 168.777344 150.941406 168.75 C 150.90625 168.710938 150.871094 168.667969 150.835938 168.632812 C 150.804688 168.601562 150.773438 168.570312 150.738281 168.539062 C 150.703125 168.507812 150.671875 168.476562 150.632812 168.445312 C 150.59375 168.414062 150.554688 168.382812 150.515625 168.351562 C 150.480469 168.328125 150.449219 168.300781 150.414062 168.277344 C 150.371094 168.246094 150.324219 168.21875 150.277344 168.191406 C 150.246094 168.171875 150.210938 168.148438 150.175781 168.128906 C 150.128906 168.105469 150.082031 168.082031 150.035156 168.058594 C 149.996094 168.039062 149.957031 168.019531 149.917969 168.003906 C 149.875 167.984375 149.828125 167.96875 149.785156 167.953125 C 149.738281 167.933594 149.6875 167.914062 149.636719 167.898438 C 149.601562 167.886719 149.566406 167.878906 149.527344 167.867188 C 149.464844 167.851562 149.40625 167.835938 149.34375 167.824219 C 149.328125 167.820312 149.3125 167.816406 149.296875 167.8125 C 149.28125 167.808594 149.265625 167.808594 149.25 167.804688 C 149.183594 167.796875 149.121094 167.785156 149.050781 167.777344 C 149.019531 167.777344 148.988281 167.773438 148.957031 167.769531 C 148.894531 167.765625 148.835938 167.765625 148.773438 167.765625 C 148.734375 167.765625 148.695312 167.765625 148.660156 167.765625 C 148.605469 167.765625 148.550781 167.769531 148.5 167.777344 C 148.453125 167.78125 148.410156 167.785156 148.363281 167.789062 C 148.316406 167.796875 148.273438 167.804688 148.226562 167.8125 C 148.175781 167.824219 148.121094 167.832031 148.070312 167.847656 C 148.03125 167.855469 147.996094 167.867188 147.957031 167.875 C 147.898438 167.894531 147.84375 167.910156 147.785156 167.929688 C 147.769531 167.9375 147.75 167.941406 147.734375 167.949219 C 139.371094 171.097656 133.585938 172.046875 129.761719 172.042969 C 128.027344 172.042969 126.703125 171.855469 125.6875 171.597656 L 143.003906 161.597656 L 133.152344 144.523438 L 115.835938 154.527344 C 116.15625 153.382812 116.757812 151.9375 117.851562 150.15625 C 119.855469 146.902344 123.527344 142.574219 130.019531 137.25 C 130.058594 137.21875 130.09375 137.179688 130.132812 137.148438 C 130.15625 137.125 130.179688 137.105469 130.203125 137.082031 C 130.296875 136.992188 130.382812 136.894531 130.460938 136.792969 C 130.476562 136.773438 130.492188 136.753906 130.507812 136.734375 C 130.582031 136.632812 130.652344 136.527344 130.710938 136.417969 C 130.71875 136.402344 130.726562 136.394531 130.734375 136.382812 C 130.800781 136.257812 130.855469 136.128906 130.902344 135.996094 C 130.90625 135.984375 130.914062 135.976562 130.917969 135.964844 C 130.925781 135.945312 130.929688 135.925781 130.933594 135.90625 C 130.953125 135.855469 130.96875 135.800781 130.984375 135.746094 C 130.996094 135.703125 131.003906 135.660156 131.015625 135.617188 C 131.023438 135.570312 131.035156 135.527344 131.039062 135.476562 C 131.050781 135.429688 131.058594 135.378906 131.0625 135.328125 C 131.066406 135.289062 131.070312 135.246094 131.074219 135.207031 C 131.078125 135.152344 131.082031 135.097656 131.082031 135.042969 C 131.082031 135.003906 131.082031 134.964844 131.082031 134.925781 C 131.078125 134.871094 131.078125 134.816406 131.074219 134.761719 C 131.070312 134.722656 131.0625 134.679688 131.058594 134.640625 C 131.054688 134.589844 131.046875 134.539062 131.039062 134.488281 C 131.03125 134.445312 131.019531 134.398438 131.007812 134.351562 C 131 134.308594 130.988281 134.261719 130.976562 134.21875 C 130.964844 134.171875 130.949219 134.125 130.933594 134.078125 C 130.917969 134.035156 130.902344 133.992188 130.886719 133.953125 C 130.871094 133.90625 130.851562 133.863281 130.832031 133.816406 C 130.8125 133.773438 130.792969 133.730469 130.769531 133.6875 C 130.753906 133.648438 130.730469 133.613281 130.710938 133.574219 C 130.683594 133.523438 130.652344 133.476562 130.621094 133.425781 C 130.605469 133.398438 130.585938 133.371094 130.566406 133.34375 C 130.527344 133.289062 130.488281 133.234375 130.445312 133.179688 C 130.4375 133.167969 130.429688 133.15625 130.421875 133.148438 C 130.414062 133.136719 130.40625 133.128906 130.398438 133.121094 C 130.347656 133.0625 130.300781 133.007812 130.246094 132.957031 C 130.230469 132.9375 130.214844 132.921875 130.195312 132.90625 C 130.144531 132.855469 130.09375 132.808594 130.039062 132.761719 C 130.015625 132.746094 129.996094 132.726562 129.972656 132.710938 C 129.921875 132.667969 129.871094 132.632812 129.816406 132.59375 C 129.789062 132.574219 129.761719 132.558594 129.734375 132.539062 C 129.683594 132.507812 129.632812 132.476562 129.582031 132.449219 C 129.546875 132.429688 129.511719 132.410156 129.476562 132.394531 C 129.429688 132.371094 129.378906 132.347656 129.328125 132.324219 C 129.289062 132.308594 129.25 132.292969 129.210938 132.277344 C 129.1875 132.265625 129.160156 132.253906 129.136719 132.246094 C 118.921875 128.660156 113.699219 125.023438 111.144531 122.34375 C 110.636719 121.808594 110.234375 121.316406 109.910156 120.867188 L 129.59375 124.339844 L 133.015625 104.925781 L 113.335938 101.453125 C 113.597656 101.273438 113.886719 101.089844 114.210938 100.902344 C 117.210938 99.1875 123.144531 97.328125 134.171875 97.332031 C 134.539062 97.332031 134.910156 97.335938 135.285156 97.339844 C 135.289062 97.339844 135.296875 97.335938 135.300781 97.335938 C 135.308594 97.335938 135.316406 97.339844 135.324219 97.339844 C 135.351562 97.339844 135.382812 97.335938 135.410156 97.332031 C 135.488281 97.332031 135.566406 97.328125 135.644531 97.316406 C 135.6875 97.3125 135.730469 97.308594 135.773438 97.300781 C 135.851562 97.289062 135.929688 97.273438 136.003906 97.253906 C 136.039062 97.246094 136.074219 97.238281 136.113281 97.226562 C 136.222656 97.195312 136.332031 97.160156 136.4375 97.117188 C 136.453125 97.109375 136.46875 97.101562 136.484375 97.09375 C 136.578125 97.054688 136.671875 97.003906 136.761719 96.953125 C 136.777344 96.945312 136.792969 96.941406 136.804688 96.933594 C 136.824219 96.921875 136.839844 96.910156 136.855469 96.898438 C 136.902344 96.871094 136.945312 96.839844 136.988281 96.8125 C 137.027344 96.785156 137.066406 96.757812 137.101562 96.726562 C 137.136719 96.699219 137.171875 96.671875 137.203125 96.644531 C 137.246094 96.609375 137.285156 96.574219 137.324219 96.535156 C 137.351562 96.511719 137.378906 96.484375 137.40625 96.457031 C 137.445312 96.414062 137.484375 96.375 137.523438 96.332031 C 137.546875 96.304688 137.566406 96.277344 137.589844 96.246094 C 137.625 96.203125 137.660156 96.15625 137.695312 96.113281 C 137.71875 96.078125 137.738281 96.046875 137.761719 96.011719 C 137.789062 95.96875 137.816406 95.925781 137.84375 95.878906 C 137.867188 95.839844 137.886719 95.800781 137.910156 95.757812 C 137.929688 95.71875 137.949219 95.675781 137.96875 95.632812 C 137.992188 95.589844 138.007812 95.542969 138.027344 95.496094 C 138.042969 95.453125 138.058594 95.414062 138.074219 95.371094 C 138.089844 95.328125 138.105469 95.28125 138.117188 95.230469 C 138.128906 95.1875 138.144531 95.140625 138.15625 95.097656 C 138.164062 95.054688 138.171875 95.011719 138.179688 94.96875 C 138.191406 94.914062 138.199219 94.859375 138.207031 94.800781 C 138.214844 94.769531 138.214844 94.734375 138.21875 94.699219 C 138.226562 94.632812 138.230469 94.566406 138.230469 94.5 C 138.230469 94.484375 138.234375 94.472656 138.234375 94.457031 C 138.234375 94.445312 138.234375 94.433594 138.234375 94.417969 C 138.234375 94.347656 138.230469 94.273438 138.222656 94.199219 C 138.222656 94.175781 138.21875 94.148438 138.21875 94.125 C 138.210938 94.054688 138.199219 93.984375 138.1875 93.917969 C 138.183594 93.886719 138.179688 93.863281 138.171875 93.835938 C 138.160156 93.769531 138.144531 93.707031 138.125 93.644531 C 138.117188 93.613281 138.109375 93.578125 138.097656 93.546875 C 138.082031 93.492188 138.0625 93.4375 138.039062 93.382812 C 138.027344 93.34375 138.011719 93.308594 137.996094 93.269531 C 137.972656 93.222656 137.949219 93.171875 137.925781 93.125 C 137.90625 93.085938 137.886719 93.046875 137.867188 93.007812 C 137.851562 92.984375 137.84375 92.960938 137.828125 92.9375 C 131.777344 82.722656 130.359375 76.332031 130.371094 72.78125 C 130.371094 72.445312 130.386719 72.140625 130.410156 71.855469 L 143.257812 87.175781 L 158.355469 74.503906 L 145.503906 59.179688 C 146.988281 59.328125 149.035156 59.828125 151.742188 61.097656 C 155.121094 62.679688 159.5 65.460938 164.96875 70.152344 C 165.519531 70.625 166.195312 70.855469 166.863281 70.855469 C 167.6875 70.855469 168.503906 70.511719 169.078125 69.835938 C 169.339844 69.53125 169.527344 69.1875 169.644531 68.828125 C 169.707031 68.652344 169.757812 68.472656 169.789062 68.285156 C 171.773438 56.203125 174.929688 50.410156 177.242188 47.804688 C 177.382812 47.644531 177.519531 47.496094 177.652344 47.359375 L 177.652344 67.363281 L 197.355469 67.363281 L 197.355469 47.371094 C 197.628906 47.648438 197.914062 47.964844 198.210938 48.335938 C 200.472656 51.15625 203.355469 56.960938 205.21875 68.285156 C 205.222656 68.296875 205.226562 68.308594 205.226562 68.320312 C 205.253906 68.472656 205.292969 68.625 205.34375 68.769531 C 205.355469 68.792969 205.363281 68.816406 205.371094 68.839844 C 205.421875 68.980469 205.488281 69.117188 205.5625 69.25 C 205.574219 69.269531 205.585938 69.289062 205.597656 69.308594 C 205.667969 69.425781 205.746094 69.539062 205.835938 69.648438 C 205.851562 69.664062 205.859375 69.679688 205.875 69.695312 C 205.878906 69.699219 205.878906 69.707031 205.882812 69.710938 C 205.976562 69.820312 206.082031 69.917969 206.1875 70.007812 C 206.210938 70.03125 206.234375 70.050781 206.257812 70.070312 C 206.5 70.265625 206.761719 70.417969 207.039062 70.523438 C 207.066406 70.535156 207.09375 70.546875 207.121094 70.554688 C 207.257812 70.605469 207.398438 70.644531 207.542969 70.671875 C 207.570312 70.675781 207.601562 70.679688 207.632812 70.6875 C 207.78125 70.710938 207.933594 70.726562 208.085938 70.726562 C 208.089844 70.726562 208.089844 70.726562 208.09375 70.726562 C 208.09375 70.726562 208.09375 70.726562 208.097656 70.726562 C 208.140625 70.726562 208.1875 70.71875 208.230469 70.714844 C 208.34375 70.710938 208.457031 70.707031 208.570312 70.6875 C 208.574219 70.6875 208.574219 70.6875 208.578125 70.683594 C 208.605469 70.679688 208.628906 70.671875 208.65625 70.667969 C 208.785156 70.640625 208.914062 70.609375 209.035156 70.566406 C 209.0625 70.558594 209.085938 70.550781 209.113281 70.542969 C 209.253906 70.488281 209.390625 70.421875 209.519531 70.351562 C 209.542969 70.339844 209.5625 70.324219 209.585938 70.3125 C 209.71875 70.234375 209.847656 70.144531 209.964844 70.042969 C 209.972656 70.035156 209.984375 70.03125 209.992188 70.023438 C 215.460938 65.328125 219.839844 62.550781 223.21875 60.96875 C 225.925781 59.699219 227.976562 59.199219 229.460938 59.050781 L 216.609375 74.375 L 231.703125 87.046875 L 244.550781 71.730469 C 244.570312 72.015625 244.585938 72.320312 244.589844 72.652344 C 244.601562 76.203125 243.183594 82.59375 237.136719 92.808594 C 237.125 92.828125 237.117188 92.84375 237.105469 92.863281 C 237.078125 92.914062 237.050781 92.960938 237.027344 93.011719 C 237.007812 93.050781 236.992188 93.089844 236.972656 93.128906 C 236.953125 93.175781 236.933594 93.222656 236.917969 93.269531 C 236.898438 93.316406 236.882812 93.359375 236.867188 93.40625 C 236.855469 93.445312 236.84375 93.488281 236.832031 93.53125 C 236.816406 93.585938 236.804688 93.640625 236.792969 93.691406 C 236.785156 93.726562 236.777344 93.765625 236.773438 93.800781 C 236.761719 93.863281 236.753906 93.925781 236.746094 93.988281 C 236.742188 94.015625 236.742188 94.050781 236.738281 94.082031 C 236.734375 94.148438 236.730469 94.214844 236.730469 94.28125 C 236.730469 94.296875 236.730469 94.3125 236.730469 94.328125 C 236.730469 94.34375 236.730469 94.359375 236.730469 94.375 C 236.734375 94.4375 236.738281 94.5 236.742188 94.5625 C 236.746094 94.601562 236.75 94.640625 236.753906 94.679688 C 236.761719 94.730469 236.769531 94.78125 236.78125 94.832031 C 236.789062 94.878906 236.796875 94.925781 236.808594 94.972656 C 236.820312 95.011719 236.832031 95.054688 236.84375 95.097656 C 236.855469 95.148438 236.871094 95.199219 236.890625 95.246094 C 236.902344 95.285156 236.917969 95.320312 236.929688 95.359375 C 236.949219 95.410156 236.972656 95.457031 236.992188 95.507812 C 237.011719 95.546875 237.03125 95.582031 237.050781 95.621094 C 237.074219 95.664062 237.09375 95.710938 237.121094 95.753906 C 237.144531 95.792969 237.171875 95.835938 237.195312 95.875 C 237.21875 95.910156 237.242188 95.949219 237.269531 95.984375 C 237.300781 96.027344 237.332031 96.070312 237.367188 96.113281 C 237.390625 96.140625 237.414062 96.171875 237.441406 96.203125 C 237.476562 96.246094 237.515625 96.285156 237.550781 96.324219 C 237.582031 96.351562 237.609375 96.382812 237.640625 96.410156 C 237.675781 96.445312 237.714844 96.476562 237.753906 96.507812 C 237.789062 96.539062 237.824219 96.570312 237.863281 96.601562 C 237.898438 96.625 237.933594 96.652344 237.96875 96.675781 C 238.015625 96.710938 238.0625 96.742188 238.109375 96.769531 C 238.125 96.78125 238.140625 96.792969 238.15625 96.800781 C 238.171875 96.808594 238.183594 96.816406 238.195312 96.824219 C 238.292969 96.875 238.386719 96.925781 238.488281 96.96875 C 238.5 96.972656 238.511719 96.980469 238.523438 96.984375 C 238.628906 97.03125 238.738281 97.066406 238.851562 97.097656 C 238.882812 97.109375 238.917969 97.113281 238.949219 97.121094 C 239.027344 97.140625 239.109375 97.160156 239.195312 97.171875 C 239.234375 97.175781 239.273438 97.183594 239.3125 97.1875 C 239.394531 97.199219 239.480469 97.203125 239.566406 97.203125 C 239.589844 97.207031 239.613281 97.210938 239.636719 97.210938 C 239.644531 97.210938 239.648438 97.207031 239.65625 97.207031 C 239.664062 97.207031 239.667969 97.210938 239.675781 97.210938 C 240.046875 97.203125 240.417969 97.203125 240.789062 97.203125 C 252.933594 97.195312 258.886719 99.457031 261.582031 101.285156 C 261.601562 101.296875 261.613281 101.308594 261.632812 101.320312 L 241.945312 104.796875 L 245.367188 124.210938 L 265.050781 120.738281 C 264.722656 121.1875 264.320312 121.679688 263.816406 122.214844 C 261.261719 124.894531 256.039062 128.527344 245.824219 132.117188 C 245.800781 132.125 245.78125 132.132812 245.761719 132.140625 C 245.710938 132.160156 245.664062 132.179688 245.617188 132.199219 C 245.574219 132.21875 245.535156 132.238281 245.492188 132.257812 C 245.449219 132.28125 245.40625 132.304688 245.363281 132.328125 C 245.320312 132.351562 245.277344 132.375 245.234375 132.402344 C 245.199219 132.425781 245.164062 132.449219 245.128906 132.476562 C 245.082031 132.507812 245.039062 132.539062 244.996094 132.570312 C 244.964844 132.597656 244.9375 132.621094 244.90625 132.644531 C 244.859375 132.683594 244.816406 132.722656 244.773438 132.765625 C 244.75 132.789062 244.722656 132.816406 244.699219 132.839844 C 244.65625 132.886719 244.613281 132.929688 244.574219 132.976562 C 244.5625 132.992188 244.550781 133.003906 244.539062 133.019531 C 244.527344 133.03125 244.515625 133.046875 244.503906 133.0625 C 244.46875 133.109375 244.433594 133.15625 244.402344 133.203125 C 244.378906 133.238281 244.351562 133.273438 244.332031 133.308594 C 244.304688 133.347656 244.28125 133.390625 244.253906 133.4375 C 244.230469 133.476562 244.207031 133.519531 244.1875 133.5625 C 244.167969 133.601562 244.148438 133.640625 244.128906 133.683594 C 244.109375 133.730469 244.089844 133.777344 244.070312 133.824219 C 244.054688 133.863281 244.042969 133.90625 244.027344 133.945312 C 244.011719 133.992188 243.996094 134.039062 243.984375 134.085938 C 243.972656 134.132812 243.960938 134.183594 243.949219 134.230469 C 243.941406 134.269531 243.929688 134.3125 243.921875 134.355469 C 243.914062 134.410156 243.90625 134.464844 243.898438 134.523438 C 243.894531 134.558594 243.890625 134.59375 243.886719 134.625 C 243.882812 134.6875 243.878906 134.75 243.878906 134.816406 C 243.878906 134.84375 243.878906 134.875 243.878906 134.902344 C 243.878906 134.96875 243.882812 135.03125 243.886719 135.097656 C 243.890625 135.128906 243.890625 135.15625 243.894531 135.1875 C 243.902344 135.246094 243.910156 135.308594 243.921875 135.371094 C 243.929688 135.40625 243.933594 135.4375 243.941406 135.472656 C 243.953125 135.527344 243.96875 135.582031 243.980469 135.636719 C 243.992188 135.679688 244.003906 135.71875 244.019531 135.761719 C 244.027344 135.785156 244.03125 135.808594 244.039062 135.835938 C 244.046875 135.851562 244.054688 135.863281 244.058594 135.878906 C 244.105469 136.003906 244.160156 136.128906 244.222656 136.246094 C 244.234375 136.265625 244.246094 136.285156 244.257812 136.300781 C 244.3125 136.40625 244.378906 136.503906 244.449219 136.597656 C 244.464844 136.621094 244.480469 136.644531 244.5 136.667969 C 244.578125 136.769531 244.664062 136.863281 244.757812 136.953125 C 244.777344 136.976562 244.800781 136.996094 244.824219 137.015625 C 244.863281 137.050781 244.902344 137.089844 244.941406 137.121094 C 251.429688 142.445312 255.101562 146.773438 257.105469 150.027344 C 258.199219 151.808594 258.800781 153.253906 259.121094 154.394531 L 241.808594 144.394531 L 231.957031 161.46875 L 249.273438 171.46875 C 248.261719 171.722656 246.933594 171.90625 245.199219 171.914062 C 241.375 171.917969 235.589844 170.96875 227.226562 167.816406 C 227.203125 167.808594 227.179688 167.804688 227.15625 167.796875 C 227.109375 167.78125 227.0625 167.765625 227.015625 167.75 C 226.972656 167.738281 226.925781 167.726562 226.878906 167.714844 C 226.832031 167.703125 226.785156 167.691406 226.738281 167.683594 C 226.6875 167.675781 226.640625 167.667969 226.59375 167.660156 C 226.550781 167.65625 226.503906 167.648438 226.457031 167.644531 C 226.40625 167.640625 226.355469 167.636719 226.304688 167.636719 C 226.261719 167.632812 226.21875 167.632812 226.175781 167.632812 C 226.121094 167.632812 226.066406 167.636719 226.011719 167.640625 C 225.972656 167.640625 225.933594 167.648438 225.894531 167.652344 C 225.835938 167.65625 225.777344 167.664062 225.722656 167.675781 C 225.699219 167.675781 225.683594 167.679688 225.664062 167.683594 C 225.640625 167.6875 225.625 167.691406 225.601562 167.695312 C 225.550781 167.707031 225.496094 167.71875 225.445312 167.734375 C 225.398438 167.746094 225.355469 167.757812 225.3125 167.773438 C 225.269531 167.785156 225.226562 167.800781 225.183594 167.820312 C 225.132812 167.835938 225.085938 167.855469 225.039062 167.875 C 225 167.890625 224.96875 167.910156 224.929688 167.925781 C 224.878906 167.949219 224.832031 167.976562 224.78125 168.003906 C 224.75 168.019531 224.714844 168.039062 224.683594 168.058594 C 224.636719 168.089844 224.589844 168.117188 224.542969 168.148438 C 224.511719 168.175781 224.476562 168.199219 224.445312 168.222656 C 224.40625 168.253906 224.363281 168.285156 224.324219 168.316406 C 224.289062 168.347656 224.253906 168.378906 224.21875 168.414062 C 224.1875 168.441406 224.15625 168.472656 224.125 168.503906 C 224.085938 168.542969 224.050781 168.582031 224.015625 168.621094 C 223.988281 168.652344 223.964844 168.679688 223.9375 168.710938 C 223.902344 168.753906 223.871094 168.796875 223.839844 168.839844 C 223.816406 168.875 223.792969 168.90625 223.769531 168.941406 C 223.742188 168.984375 223.714844 169.027344 223.691406 169.070312 C 223.667969 169.113281 223.640625 169.152344 223.621094 169.195312 C 223.601562 169.234375 223.582031 169.273438 223.5625 169.3125 C 223.539062 169.363281 223.515625 169.414062 223.496094 169.464844 C 223.488281 169.484375 223.480469 169.503906 223.472656 169.523438 C 223.464844 169.542969 223.460938 169.558594 223.453125 169.578125 C 223.433594 169.632812 223.417969 169.6875 223.402344 169.742188 C 223.390625 169.78125 223.378906 169.820312 223.371094 169.859375 C 223.359375 169.910156 223.347656 169.964844 223.335938 170.015625 C 223.328125 170.0625 223.320312 170.105469 223.3125 170.152344 C 223.308594 170.195312 223.304688 170.242188 223.300781 170.289062 C 223.292969 170.34375 223.289062 170.394531 223.289062 170.449219 C 223.289062 170.484375 223.289062 170.523438 223.289062 170.5625 C 223.289062 170.625 223.289062 170.683594 223.292969 170.746094 C 223.296875 170.777344 223.300781 170.808594 223.304688 170.839844 C 223.308594 170.910156 223.320312 170.976562 223.332031 171.042969 C 223.332031 171.054688 223.335938 171.070312 223.335938 171.085938 C 224.316406 176.3125 224.691406 180.503906 224.691406 183.835938 C 224.6875 188.644531 223.917969 191.625 223.101562 193.4375 L 216.265625 174.640625 Z M 197.746094 181.382812 " fill-opacity="1" fill-rule="nonzero"/><path fill="#000000" d="M 273.890625 164.847656 C 274.355469 165.117188 274.789062 165.429688 275.195312 165.785156 C 275.601562 166.140625 275.964844 166.53125 276.292969 166.957031 C 276.621094 167.386719 276.902344 167.839844 277.140625 168.324219 C 277.378906 168.804688 277.570312 169.308594 277.707031 169.828125 C 277.847656 170.347656 277.933594 170.875 277.96875 171.414062 C 278.003906 171.949219 277.988281 172.488281 277.917969 173.019531 C 277.847656 173.554688 277.726562 174.074219 277.550781 174.585938 C 277.378906 175.09375 277.160156 175.582031 276.890625 176.050781 C 276.621094 176.515625 276.308594 176.953125 275.953125 177.355469 C 275.597656 177.761719 275.207031 178.128906 274.78125 178.457031 C 274.355469 178.785156 273.898438 179.066406 273.417969 179.304688 C 272.933594 179.542969 272.433594 179.730469 271.914062 179.871094 C 271.394531 180.011719 270.863281 180.097656 270.328125 180.132812 C 269.789062 180.167969 269.253906 180.148438 268.722656 180.078125 C 268.1875 180.007812 267.667969 179.886719 267.15625 179.714844 C 266.648438 179.542969 266.160156 179.320312 265.691406 179.050781 C 265.226562 178.78125 264.792969 178.46875 264.386719 178.113281 C 263.980469 177.757812 263.617188 177.367188 263.289062 176.941406 C 262.960938 176.515625 262.679688 176.058594 262.441406 175.578125 C 262.203125 175.09375 262.011719 174.59375 261.875 174.070312 C 261.734375 173.550781 261.648438 173.023438 261.613281 172.484375 C 261.578125 171.949219 261.59375 171.414062 261.664062 170.878906 C 261.734375 170.34375 261.855469 169.824219 262.03125 169.3125 C 262.203125 168.804688 262.421875 168.316406 262.691406 167.847656 C 262.960938 167.382812 263.273438 166.949219 263.628906 166.542969 C 263.984375 166.136719 264.375 165.773438 264.800781 165.445312 C 265.226562 165.117188 265.683594 164.832031 266.164062 164.59375 C 266.648438 164.355469 267.148438 164.167969 267.667969 164.027344 C 268.1875 163.890625 268.71875 163.800781 269.253906 163.765625 C 269.792969 163.730469 270.328125 163.75 270.859375 163.820312 C 271.394531 163.890625 271.914062 164.011719 272.425781 164.183594 C 272.933594 164.359375 273.421875 164.578125 273.890625 164.847656 Z M 273.890625 164.847656 " fill-opacity="1" fill-rule="nonzero"/><path fill="#000000" d="M 227.703125 210.933594 C 227.886719 211.441406 228.019531 211.960938 228.101562 212.492188 C 228.183594 213.023438 228.210938 213.558594 228.1875 214.097656 C 228.164062 214.636719 228.089844 215.164062 227.960938 215.6875 C 227.835938 216.210938 227.65625 216.71875 227.429688 217.207031 C 227.203125 217.695312 226.929688 218.15625 226.609375 218.589844 C 226.292969 219.023438 225.933594 219.421875 225.539062 219.785156 C 225.140625 220.148438 224.714844 220.472656 224.253906 220.75 C 223.792969 221.03125 223.308594 221.261719 222.804688 221.445312 C 222.296875 221.628906 221.78125 221.761719 221.246094 221.84375 C 220.714844 221.925781 220.179688 221.957031 219.644531 221.933594 C 219.105469 221.910156 218.574219 221.832031 218.054688 221.703125 C 217.53125 221.578125 217.023438 221.398438 216.539062 221.171875 C 216.050781 220.945312 215.589844 220.671875 215.15625 220.351562 C 214.71875 220.035156 214.320312 219.675781 213.957031 219.28125 C 213.59375 218.882812 213.273438 218.453125 212.992188 217.992188 C 212.714844 217.53125 212.484375 217.050781 212.300781 216.542969 C 212.113281 216.039062 211.980469 215.519531 211.898438 214.988281 C 211.816406 214.453125 211.789062 213.917969 211.8125 213.382812 C 211.835938 212.84375 211.910156 212.3125 212.039062 211.789062 C 212.167969 211.265625 212.34375 210.761719 212.574219 210.273438 C 212.800781 209.785156 213.074219 209.324219 213.390625 208.890625 C 213.710938 208.457031 214.066406 208.058594 214.464844 207.695312 C 214.859375 207.328125 215.289062 207.007812 215.75 206.730469 C 216.210938 206.449219 216.691406 206.21875 217.199219 206.035156 C 217.703125 205.847656 218.222656 205.714844 218.753906 205.632812 C 219.285156 205.554688 219.820312 205.523438 220.359375 205.546875 C 220.894531 205.570312 221.425781 205.644531 221.949219 205.773438 C 222.472656 205.902344 222.976562 206.082031 223.464844 206.308594 C 223.953125 206.535156 224.414062 206.808594 224.847656 207.125 C 225.28125 207.445312 225.679688 207.804688 226.042969 208.199219 C 226.40625 208.597656 226.730469 209.027344 227.007812 209.484375 C 227.289062 209.945312 227.519531 210.429688 227.703125 210.933594 Z M 227.703125 210.933594 " fill-opacity="1" fill-rule="nonzero"/><g clip-path="url(#8ff3d56d7d)"><path fill="#000000" d="M 187.621094 240.546875 C 154.695312 240.546875 127.996094 267.246094 127.996094 300.171875 C 127.996094 333.101562 154.695312 359.796875 187.621094 359.796875 C 220.550781 359.796875 247.246094 333.101562 247.246094 300.171875 C 247.246094 267.246094 220.550781 240.546875 187.621094 240.546875 Z M 184.441406 275.667969 L 198.8125 275.667969 L 198.8125 307.597656 L 205.226562 307.597656 L 205.226562 316.117188 L 198.8125 316.117188 L 198.8125 324.679688 L 189.019531 324.679688 L 189.019531 316.117188 L 165.039062 316.117188 L 165.039062 307.054688 C 169.457031 298.730469 175.847656 288.609375 184.441406 275.667969 Z M 188.71875 283.648438 C 184.238281 290.339844 179.855469 297.199219 174.25 307.355469 L 174.25 307.898438 L 189.261719 307.898438 L 189.261719 283.648438 Z M 188.71875 283.648438 " fill-opacity="1" fill-rule="nonzero"/></g></svg>