<svg xmlns="http://www.w3.org/2000/svg" xmlns:xlink="http://www.w3.org/1999/xlink" width="500" zoomAndPan="magnify" viewBox="0 0 375 374.999991" height="500" preserveAspectRatio="xMidYMid meet" version="1.0"><defs><clipPath id="71cdeb36bc"><path d="M 123.425781 240.546875 L 251.675781 240.546875 L 251.675781 368.796875 L 123.425781 368.796875 Z M 123.425781 240.546875 " clip-rule="nonzero"/></clipPath></defs><path fill="#000000" d="M 281.628906 23.316406 C 280.929688 20.933594 279.066406 19.070312 276.683594 18.371094 C 276.683594 18.371094 214.460938 -0.144531 163.265625 51.039062 C 138.039062 76.265625 111.789062 117.554688 109.773438 141.222656 C 109.585938 143.367188 110.355469 145.492188 111.886719 147.007812 L 152.992188 188.113281 C 154.507812 189.644531 156.632812 190.414062 158.777344 190.226562 C 182.445312 188.210938 223.734375 161.960938 248.960938 136.734375 C 300.144531 85.539062 281.628906 23.316406 281.628906 23.316406 Z M 268.539062 31.472656 C 271.140625 44.835938 276.078125 88.949219 238.625 126.398438 C 216.914062 148.121094 182.523438 171.449219 160.78125 175.246094 C 160.78125 175.246094 124.753906 139.21875 124.753906 139.21875 C 128.5625 117.476562 151.878906 83.085938 173.601562 61.375 C 211.050781 23.921875 255.175781 28.859375 268.527344 31.460938 Z M 268.539062 31.472656 " fill-opacity="1" fill-rule="evenodd"/><path fill="#000000" d="M 238.683594 61.316406 C 226.382812 49.011719 206.394531 49.011719 194.09375 61.316406 C 181.792969 73.617188 181.792969 93.605469 194.09375 105.90625 C 206.394531 118.207031 226.382812 118.207031 238.683594 105.90625 C 250.988281 93.605469 250.988281 73.617188 238.683594 61.316406 Z M 228.351562 71.648438 C 234.953125 78.253906 234.953125 88.96875 228.351562 95.570312 C 221.746094 102.175781 211.03125 102.175781 204.429688 95.570312 C 197.824219 88.96875 197.824219 78.253906 204.429688 71.648438 C 211.03125 65.046875 221.746094 65.046875 228.351562 71.648438 Z M 228.351562 71.648438 " fill-opacity="1" fill-rule="evenodd"/><path fill="#000000" d="M 197.777344 161.394531 L 138.605469 102.222656 C 135.757812 99.378906 131.125 99.378906 128.277344 102.222656 C 125.425781 105.078125 125.425781 109.703125 128.277344 112.558594 L 187.441406 171.722656 C 190.296875 174.574219 194.921875 174.574219 197.777344 171.722656 C 200.621094 168.875 200.621094 164.242188 197.777344 161.394531 Z M 197.777344 161.394531 " fill-opacity="1" fill-rule="evenodd"/><path fill="#000000" d="M 212.542969 154.890625 C 212.542969 154.890625 211.070312 170.992188 210.058594 182.144531 C 209.6875 186.214844 207.300781 189.816406 203.707031 191.757812 L 179.164062 204.972656 C 179.164062 204.972656 179.164062 182.953125 179.164062 182.953125 C 179.164062 178.917969 175.890625 175.644531 171.855469 175.644531 C 167.824219 175.644531 164.550781 178.917969 164.550781 182.953125 L 164.550781 217.207031 C 164.550781 219.777344 165.90625 222.164062 168.105469 223.480469 C 170.316406 224.796875 173.054688 224.863281 175.324219 223.636719 C 175.324219 223.636719 197.589844 211.644531 210.632812 204.625 C 218.550781 200.367188 223.800781 192.417969 224.609375 183.46875 C 225.625 172.316406 227.09375 156.203125 227.09375 156.203125 C 227.453125 152.191406 224.492188 148.636719 220.480469 148.277344 C 216.457031 147.90625 212.902344 150.867188 212.542969 154.890625 Z M 212.542969 154.890625 " fill-opacity="1" fill-rule="evenodd"/><path fill="#000000" d="M 143.796875 72.90625 C 143.796875 72.90625 127.683594 74.375 116.53125 75.390625 C 107.582031 76.199219 99.632812 81.449219 95.375 89.367188 C 88.355469 102.410156 76.363281 124.675781 76.363281 124.675781 C 75.136719 126.945312 75.203125 129.683594 76.519531 131.894531 C 77.835938 134.09375 80.222656 135.449219 82.792969 135.449219 L 117.046875 135.449219 C 121.082031 135.449219 124.355469 132.175781 124.355469 128.144531 C 124.355469 124.109375 121.082031 120.835938 117.046875 120.835938 L 95.027344 120.835938 L 108.242188 96.292969 C 110.183594 92.699219 113.785156 90.3125 117.855469 89.941406 C 129.007812 88.929688 145.109375 87.457031 145.109375 87.457031 C 149.132812 87.097656 152.09375 83.542969 151.722656 79.519531 C 151.363281 75.507812 147.808594 72.546875 143.796875 72.90625 Z M 143.796875 72.90625 " fill-opacity="1" fill-rule="evenodd"/><path fill="#000000" d="M 96.535156 158.875 L 81.046875 174.359375 C 78.203125 177.214844 78.203125 181.839844 81.046875 184.695312 C 83.902344 187.539062 88.527344 187.539062 91.382812 184.695312 L 106.871094 169.207031 C 109.722656 166.355469 109.722656 161.726562 106.871094 158.875 C 104.015625 156.019531 99.390625 156.019531 96.535156 158.875 Z M 96.535156 158.875 " fill-opacity="1" fill-rule="evenodd"/><path fill="#000000" d="M 113.667969 176.007812 L 84.476562 205.1875 C 81.625 208.042969 81.625 212.667969 84.476562 215.523438 C 87.332031 218.375 91.957031 218.375 94.8125 215.523438 L 123.992188 186.332031 C 126.847656 183.488281 126.847656 178.851562 123.992188 176.007812 C 121.148438 173.152344 116.511719 173.152344 113.667969 176.007812 Z M 113.667969 176.007812 " fill-opacity="1" fill-rule="evenodd"/><path fill="#000000" d="M 130.792969 193.128906 L 115.304688 208.617188 C 112.460938 211.472656 112.460938 216.097656 115.304688 218.953125 C 118.160156 221.796875 122.785156 221.796875 125.640625 218.953125 L 141.125 203.464844 C 143.980469 200.609375 143.980469 195.984375 141.125 193.128906 C 138.273438 190.277344 133.644531 190.277344 130.792969 193.128906 Z M 130.792969 193.128906 " fill-opacity="1" fill-rule="evenodd"/><g clip-path="url(#71cdeb36bc)"><path fill="#000000" d="M 187.550781 240.546875 C 152.136719 240.546875 123.425781 269.261719 123.425781 304.671875 C 123.425781 340.085938 152.136719 368.796875 187.550781 368.796875 C 222.960938 368.796875 251.675781 340.085938 251.675781 304.671875 C 251.675781 269.261719 222.960938 240.546875 187.550781 240.546875 Z M 187.292969 332.382812 C 175.53125 332.382812 167.570312 325.878906 167.09375 315.945312 L 177.652344 315.945312 C 177.984375 320.402344 181.746094 323.210938 187.40625 323.210938 C 192.921875 323.210938 196.757812 320.105469 196.757812 315.613281 C 196.757812 311.011719 193.140625 308.15625 187.222656 308.15625 L 180.683594 308.15625 L 180.683594 299.9375 L 187.113281 299.9375 C 192.117188 299.9375 195.511719 297.015625 195.511719 292.703125 C 195.511719 288.464844 192.226562 285.761719 187.074219 285.761719 C 181.960938 285.761719 178.5625 288.648438 178.273438 293.214844 L 168.082031 293.214844 C 168.445312 283.246094 175.863281 276.960938 187.367188 276.960938 C 198.179688 276.960938 205.960938 282.875 205.960938 291.171875 C 205.960938 297.273438 202.121094 302.019531 196.242188 303.226562 L 196.242188 303.882812 C 203.480469 304.683594 208.003906 309.511719 208.003906 316.453125 C 208.003906 325.695312 199.3125 332.382812 187.292969 332.382812 Z M 187.292969 332.382812 " fill-opacity="1" fill-rule="nonzero"/></g></svg>