<svg xmlns="http://www.w3.org/2000/svg" xmlns:xlink="http://www.w3.org/1999/xlink" width="500" zoomAndPan="magnify" viewBox="0 0 375 374.999991" height="500" preserveAspectRatio="xMidYMid meet" version="1.0"><defs><clipPath id="ff6b60c27d"><path d="M 91.6875 15.242188 L 133 15.242188 L 133 88 L 91.6875 88 Z M 91.6875 15.242188 " clip-rule="nonzero"/></clipPath><clipPath id="d57b81b61a"><path d="M 96 94 L 275 94 L 275 234.242188 L 96 234.242188 Z M 96 94 " clip-rule="nonzero"/></clipPath><clipPath id="a2c8e07ae1"><path d="M 211 15.242188 L 263 15.242188 L 263 77 L 211 77 Z M 211 15.242188 " clip-rule="nonzero"/></clipPath><clipPath id="a08d520102"><path d="M 269 37 L 282.9375 37 L 282.9375 45 L 269 45 Z M 269 37 " clip-rule="nonzero"/></clipPath><clipPath id="9a43f2d6bc"><path d="M 136.636719 254.566406 L 238.636719 254.566406 L 238.636719 356.566406 L 136.636719 356.566406 Z M 136.636719 254.566406 " clip-rule="nonzero"/></clipPath></defs><path fill="#000000" d="M 189.695312 75.109375 C 195.3125 75.109375 199.910156 70.503906 199.910156 64.878906 C 199.910156 59.25 195.3125 54.644531 189.695312 54.644531 C 184.078125 54.644531 179.484375 59.25 179.484375 64.878906 C 179.652344 70.503906 184.25 75.109375 189.695312 75.109375 Z M 189.695312 61.464844 C 191.570312 61.464844 193.101562 63 193.101562 64.878906 C 193.101562 66.753906 191.570312 68.289062 189.695312 68.289062 C 187.824219 68.289062 186.292969 66.753906 186.292969 64.878906 C 186.292969 63 187.996094 61.464844 189.695312 61.464844 Z M 189.695312 61.464844 " fill-opacity="1" fill-rule="nonzero"/><path fill="#000000" d="M 171.992188 35.882812 C 166.375 35.882812 161.777344 40.488281 161.777344 46.117188 C 161.777344 51.742188 166.375 56.347656 171.992188 56.347656 C 177.609375 56.347656 182.207031 51.742188 182.207031 46.117188 C 182.207031 40.488281 177.441406 35.882812 171.992188 35.882812 Z M 171.992188 49.527344 C 170.121094 49.527344 168.589844 47.992188 168.589844 46.117188 C 168.589844 44.238281 170.121094 42.703125 171.992188 42.703125 C 173.867188 42.703125 175.398438 44.238281 175.398438 46.117188 C 175.398438 47.992188 173.695312 49.527344 171.992188 49.527344 Z M 171.992188 49.527344 " fill-opacity="1" fill-rule="nonzero"/><path fill="#000000" d="M 156.160156 46.117188 C 156.160156 40.488281 151.566406 35.882812 145.949219 35.882812 C 140.332031 35.882812 135.734375 40.488281 135.734375 46.117188 C 135.734375 51.742188 140.332031 56.347656 145.949219 56.347656 C 151.566406 56.347656 156.160156 51.742188 156.160156 46.117188 Z M 142.714844 46.117188 C 142.714844 44.238281 144.246094 42.703125 146.117188 42.703125 C 147.992188 42.703125 149.523438 44.238281 149.523438 46.117188 C 149.523438 47.992188 147.992188 49.527344 146.117188 49.527344 C 144.246094 49.527344 142.714844 47.992188 142.714844 46.117188 Z M 142.714844 46.117188 " fill-opacity="1" fill-rule="nonzero"/><g clip-path="url(#ff6b60c27d)"><path fill="#000000" d="M 92.15625 49.527344 C 92.15625 49.695312 92.15625 49.695312 92.15625 49.527344 C 92.324219 49.867188 92.324219 49.867188 92.324219 50.039062 L 104.414062 87.730469 C 105.261719 87.390625 106.285156 87.21875 107.304688 87.21875 L 111.390625 87.21875 L 99.644531 50.378906 L 102.539062 49.355469 L 114.625 87.390625 L 121.777344 87.390625 L 109.007812 47.308594 L 111.902344 46.285156 L 125.011719 87.390625 L 132.160156 87.390625 L 117.519531 41.511719 C 117.519531 41.339844 117.351562 41.339844 117.351562 41.167969 C 117.351562 41 117.351562 41 117.351562 40.828125 C 117.179688 40.316406 116.839844 39.976562 116.667969 39.632812 C 116.667969 39.632812 116.5 39.464844 116.5 39.464844 L 99.136719 17.121094 C 98.285156 15.925781 96.753906 15.585938 95.390625 15.925781 C 94.027344 16.4375 93.007812 17.632812 93.007812 18.996094 L 91.984375 47.652344 C 91.984375 47.820312 91.984375 47.820312 91.984375 47.992188 C 91.984375 48.503906 91.984375 49.015625 92.15625 49.527344 Z M 108.496094 40.316406 L 103.730469 42.023438 L 98.964844 43.726562 L 99.304688 32.8125 L 101.859375 31.957031 Z M 108.496094 40.316406 " fill-opacity="1" fill-rule="nonzero"/></g><g clip-path="url(#d57b81b61a)"><path fill="#000000" d="M 265.957031 168.75 L 266.640625 168.40625 C 266.808594 168.40625 267.152344 168.238281 267.320312 168.238281 C 268.851562 167.726562 271.40625 166.871094 272.9375 164.484375 C 274.128906 162.4375 274.46875 159.878906 273.449219 157.664062 C 272.085938 154.25 269.875 151.523438 267.492188 148.453125 C 265.617188 146.0625 263.746094 143.675781 262.042969 140.777344 C 261.703125 140.09375 261.191406 139.414062 260.851562 138.730469 C 258.128906 134.125 255.40625 129.347656 256.257812 125.597656 C 257.957031 115.875 257.105469 105.980469 253.703125 96.601562 C 253.191406 95.238281 252 94.382812 250.46875 94.382812 L 105.773438 94.382812 C 104.414062 94.382812 103.222656 95.238281 102.539062 96.429688 C 99.476562 103.933594 97.433594 111.78125 96.921875 118.433594 C 95.902344 132.417969 99.304688 146.0625 106.625 156.980469 C 107.816406 158.855469 109.007812 160.730469 110.03125 162.4375 C 111.390625 164.824219 112.921875 167.214844 114.796875 169.773438 C 122.796875 181.027344 139.480469 209 122.285156 228.617188 C 121.433594 229.640625 121.265625 231.003906 121.777344 232.195312 C 122.285156 233.390625 123.476562 234.242188 124.839844 234.242188 L 204.675781 234.242188 C 206.039062 234.242188 207.402344 233.390625 207.910156 232.027344 C 208.421875 230.664062 208.082031 229.296875 207.058594 228.273438 C 202.464844 223.839844 200.082031 220.257812 200.25 212.921875 C 213.1875 220.429688 226.976562 224.863281 240.253906 226.058594 C 244.339844 226.398438 248.085938 225.375 251.148438 223.15625 C 253.703125 221.28125 255.574219 218.722656 256.425781 215.824219 C 257.789062 211.21875 257.105469 206.101562 256.597656 202.007812 C 256.425781 200.644531 256.257812 198.765625 256.257812 197.574219 C 256.257812 197.574219 256.425781 197.574219 256.425781 197.574219 C 258.128906 197.230469 262.382812 196.378906 262.382812 192.285156 C 262.382812 190.921875 261.875 189.726562 261.191406 188.875 C 262.214844 188.703125 263.066406 188.363281 263.746094 187.851562 C 268.171875 184.441406 265.789062 178.8125 264.085938 175.230469 C 263.40625 173.695312 262.214844 171.136719 262.554688 170.285156 C 263.40625 169.601562 264.765625 169.261719 265.957031 168.75 Z M 258.128906 165.335938 C 254.214844 169.089844 256.425781 174.207031 258.128906 177.957031 C 258.640625 179.324219 259.660156 181.371094 259.660156 182.222656 C 259.148438 182.222656 258.296875 182.222656 257.789062 182.394531 C 255.574219 182.394531 252.339844 182.5625 251.660156 185.632812 C 251.148438 188.023438 252.851562 189.726562 254.214844 191.261719 C 252.679688 191.605469 250.980469 192.285156 250.128906 194.164062 C 249.105469 196.550781 249.617188 199.449219 249.957031 203.03125 C 250.46875 206.613281 250.980469 210.878906 249.957031 214.117188 C 249.617188 215.480469 248.59375 216.847656 247.234375 217.871094 C 245.703125 219.0625 243.488281 219.574219 241.105469 219.40625 C 227.996094 218.210938 214.378906 213.605469 201.613281 205.761719 L 201.101562 205.417969 C 200.589844 205.078125 199.910156 204.738281 199.398438 204.394531 C 199.398438 204.394531 199.230469 204.394531 199.230469 204.226562 C 191.058594 198.9375 190.886719 195.695312 190.886719 195.015625 C 191.058594 193.140625 189.695312 191.433594 187.824219 191.261719 C 185.953125 191.09375 184.25 192.457031 184.078125 194.332031 C 183.738281 199.109375 186.972656 204.054688 193.78125 208.660156 C 193.101562 217.1875 194.464844 222.476562 197.527344 227.082031 L 131.820312 227.082031 C 145.097656 204.738281 128.753906 177.105469 120.585938 165.507812 C 118.882812 163.121094 117.519531 160.902344 116.15625 158.683594 C 115.136719 156.808594 113.945312 154.933594 112.582031 153.058594 C 106.113281 143.335938 103.050781 131.226562 104.070312 118.773438 C 104.414062 113.488281 105.945312 107.175781 108.328125 101.035156 L 248.253906 101.035156 C 250.636719 108.539062 251.148438 116.558594 249.789062 124.230469 C 248.59375 130.542969 252.171875 136.683594 255.234375 141.96875 C 255.574219 142.652344 256.085938 143.335938 256.425781 144.015625 C 258.296875 147.257812 260.511719 150.15625 262.382812 152.546875 C 264.597656 155.273438 266.300781 157.664062 267.320312 160.050781 C 267.492188 160.390625 267.492188 160.5625 267.320312 160.5625 C 267.152344 160.902344 266.128906 161.242188 265.449219 161.585938 C 265.109375 161.753906 264.765625 161.753906 264.425781 161.925781 L 263.746094 162.097656 C 261.875 162.949219 259.832031 163.632812 258.128906 165.335938 Z M 258.128906 165.335938 " fill-opacity="1" fill-rule="nonzero"/></g><g clip-path="url(#a2c8e07ae1)"><path fill="#000000" d="M 238.550781 15.753906 C 231.402344 15.242188 224.421875 17.800781 219.144531 22.578125 C 214.039062 27.355469 211.144531 33.835938 211.144531 40.828125 C 211.144531 48.671875 214.71875 56.007812 221.1875 60.785156 C 223.0625 62.148438 224.253906 64.367188 224.253906 66.414062 L 224.253906 70.675781 C 224.253906 73.746094 226.464844 76.988281 229.871094 76.988281 L 243.488281 76.988281 C 246.894531 76.988281 249.277344 73.746094 249.277344 70.675781 L 249.277344 66.070312 C 249.277344 64.023438 250.296875 61.976562 252.171875 60.613281 C 258.980469 55.496094 262.722656 47.308594 262.042969 38.953125 C 261.363281 26.671875 251.148438 16.609375 238.550781 15.753906 Z M 248.085938 55.496094 C 244.511719 58.226562 242.46875 62.148438 242.46875 66.414062 L 242.46875 70.335938 L 230.890625 70.335938 L 230.890625 66.582031 C 230.890625 62.320312 228.679688 58.054688 225.273438 55.496094 C 220.679688 51.914062 217.953125 46.628906 217.953125 41 C 217.953125 35.882812 219.996094 31.277344 223.742188 27.695312 C 227.65625 24.113281 232.59375 22.238281 238.042969 22.578125 C 247.402344 23.261719 254.722656 30.59375 255.40625 39.632812 C 255.746094 45.773438 253.023438 51.742188 248.085938 55.496094 Z M 248.085938 55.496094 " fill-opacity="1" fill-rule="nonzero"/></g><path fill="#000000" d="M 244.851562 42.363281 C 244.851562 42.023438 244.851562 41.851562 244.851562 41.679688 C 244.851562 41.511719 244.851562 41.511719 244.679688 41.339844 C 244.679688 41.167969 244.679688 41.167969 244.511719 41 C 244.511719 40.828125 244.339844 40.828125 244.339844 40.65625 C 244.339844 40.488281 244.167969 40.488281 244.167969 40.316406 C 244.167969 40.316406 244 40.144531 244 40.144531 C 244 39.976562 243.828125 39.976562 243.828125 39.804688 C 243.828125 39.804688 243.660156 39.632812 243.660156 39.632812 C 243.488281 39.804688 243.488281 39.632812 243.320312 39.632812 C 243.148438 39.632812 243.148438 39.464844 242.976562 39.464844 C 242.976562 39.464844 242.808594 39.464844 242.808594 39.292969 C 242.636719 39.121094 242.46875 39.121094 242.128906 39.121094 C 241.957031 39.121094 241.617188 39.121094 241.445312 39.121094 L 237.699219 39.121094 L 240.085938 33.324219 C 240.765625 31.617188 240.085938 29.570312 238.382812 28.890625 C 236.679688 28.207031 234.636719 28.890625 233.957031 30.59375 L 229.53125 41 C 229.359375 41.167969 229.359375 41.511719 229.359375 41.679688 C 229.359375 41.851562 229.359375 42.191406 229.359375 42.363281 C 229.359375 42.363281 229.359375 42.535156 229.359375 42.535156 C 229.359375 42.703125 229.359375 42.875 229.359375 43.046875 C 229.359375 43.214844 229.359375 43.214844 229.53125 43.386719 C 229.53125 43.558594 229.53125 43.558594 229.699219 43.726562 C 229.699219 43.898438 229.871094 43.898438 229.871094 44.070312 C 229.871094 44.238281 230.039062 44.238281 230.039062 44.410156 C 230.039062 44.582031 230.210938 44.582031 230.210938 44.582031 C 230.210938 44.75 230.382812 44.75 230.382812 44.921875 C 230.382812 44.921875 230.550781 45.09375 230.722656 45.09375 C 230.722656 45.09375 230.890625 45.261719 230.890625 45.261719 C 231.0625 45.433594 231.230469 45.433594 231.402344 45.605469 C 231.574219 45.773438 231.914062 45.773438 232.082031 45.773438 C 232.253906 45.773438 232.59375 45.773438 232.765625 45.773438 L 236.507812 45.773438 L 233.785156 51.574219 C 233.105469 53.277344 233.785156 55.324219 235.660156 56.007812 C 236.167969 56.179688 236.507812 56.347656 237.019531 56.347656 C 238.382812 56.347656 239.574219 55.496094 240.085938 54.300781 L 244.511719 43.898438 C 244.679688 43.726562 244.679688 43.386719 244.679688 43.214844 C 244.851562 42.875 244.851562 42.703125 244.851562 42.363281 Z M 244.851562 42.363281 " fill-opacity="1" fill-rule="nonzero"/><path fill="#000000" d="M 231.574219 80.570312 C 229.699219 80.570312 228.167969 82.105469 228.167969 83.980469 C 228.167969 85.855469 229.699219 87.390625 231.574219 87.390625 L 241.785156 87.390625 C 243.660156 87.390625 245.191406 85.855469 245.191406 83.980469 C 245.191406 82.105469 243.660156 80.570312 241.785156 80.570312 Z M 231.574219 80.570312 " fill-opacity="1" fill-rule="nonzero"/><path fill="#000000" d="M 269.023438 31.957031 C 269.875 31.957031 270.894531 31.617188 271.578125 30.933594 L 276.34375 25.820312 C 277.535156 24.453125 277.535156 22.238281 276.171875 21.042969 C 274.8125 19.847656 272.597656 19.847656 271.40625 21.214844 L 266.640625 26.332031 C 265.449219 27.695312 265.449219 29.914062 266.808594 31.105469 C 267.320312 31.617188 268.171875 31.957031 269.023438 31.957031 Z M 269.023438 31.957031 " fill-opacity="1" fill-rule="nonzero"/><path fill="#000000" d="M 276.171875 56.859375 L 271.40625 51.742188 C 270.214844 50.378906 268 50.207031 266.640625 51.574219 C 265.277344 52.765625 265.109375 54.984375 266.46875 56.347656 L 271.234375 61.464844 C 271.917969 62.148438 272.769531 62.488281 273.789062 62.488281 C 274.640625 62.488281 275.492188 62.148438 276.171875 61.636719 C 277.363281 60.441406 277.535156 58.394531 276.171875 56.859375 Z M 276.171875 56.859375 " fill-opacity="1" fill-rule="nonzero"/><g clip-path="url(#a08d520102)"><path fill="#000000" d="M 282.640625 41.339844 C 282.640625 39.464844 281.109375 37.929688 279.238281 37.929688 L 272.9375 37.929688 C 271.066406 37.929688 269.535156 39.464844 269.535156 41.339844 C 269.535156 43.214844 271.066406 44.75 272.9375 44.75 L 279.238281 44.75 C 281.109375 44.75 282.640625 43.214844 282.640625 41.339844 Z M 282.640625 41.339844 " fill-opacity="1" fill-rule="nonzero"/></g><path fill="#000000" d="M 139.648438 87.390625 C 139.480469 87.390625 139.480469 87.21875 139.308594 87.21875 L 139.308594 87.390625 Z M 139.648438 87.390625 " fill-opacity="1" fill-rule="nonzero"/><path fill="#000000" d="M 217.953125 87.390625 C 218.296875 79.886719 217.445312 72.382812 215.402344 65.046875 C 208.59375 59.078125 204.507812 50.71875 204.335938 41.679688 C 195.996094 30.253906 184.589844 22.917969 171.480469 20.53125 C 161.609375 18.824219 136.925781 16.4375 122.285156 32.640625 C 121.777344 33.152344 121.433594 33.664062 121.09375 34.175781 L 122.285156 35.882812 C 122.96875 36.90625 123.648438 37.929688 123.988281 39.121094 L 124.667969 41 C 125.519531 39.804688 126.371094 38.441406 127.394531 37.417969 C 139.648438 23.429688 161.4375 25.648438 170.289062 27.183594 C 183.058594 29.402344 194.292969 37.585938 201.78125 49.867188 C 208.421875 60.953125 211.65625 74.429688 211.144531 87.390625 Z M 217.953125 87.390625 " fill-opacity="1" fill-rule="nonzero"/><path fill="#000000" d="M 194.804688 86.367188 C 195.65625 86.367188 196.503906 86.707031 197.1875 87.390625 L 204.675781 87.390625 C 203.65625 82.957031 199.570312 79.546875 194.804688 79.546875 C 190.039062 79.546875 185.953125 82.957031 184.929688 87.390625 L 192.421875 87.390625 C 193.101562 86.707031 193.953125 86.367188 194.804688 86.367188 Z M 194.804688 86.367188 " fill-opacity="1" fill-rule="nonzero"/><g clip-path="url(#9a43f2d6bc)"><path fill="#000000" d="M 187.636719 254.566406 C 159.472656 254.566406 136.636719 277.402344 136.636719 305.566406 C 136.636719 333.730469 159.472656 356.566406 187.636719 356.566406 C 215.800781 356.566406 238.636719 333.730469 238.636719 305.566406 C 238.636719 277.402344 215.800781 254.566406 187.636719 254.566406 Z M 203.003906 326.816406 L 172.761719 326.816406 L 172.761719 320.6875 L 186.445312 307.296875 C 192.34375 301.542969 193.824219 299.367188 193.824219 296.632812 C 193.824219 293.261719 191.089844 290.878906 187.257812 290.878906 C 183.191406 290.878906 180.402344 293.550781 180.402344 297.414062 L 180.402344 297.589844 L 172.269531 297.589844 L 172.269531 297.445312 C 172.269531 289.339844 178.484375 283.820312 187.550781 283.820312 C 196.296875 283.820312 202.394531 288.847656 202.394531 296.050781 C 202.394531 300.613281 199.925781 304.535156 192.664062 311.363281 L 184.644531 319.003906 L 184.644531 319.527344 L 203.003906 319.527344 Z M 203.003906 326.816406 " fill-opacity="1" fill-rule="nonzero"/></g></svg>