<svg xmlns="http://www.w3.org/2000/svg" xmlns:xlink="http://www.w3.org/1999/xlink" width="500" zoomAndPan="magnify" viewBox="0 0 375 374.999991" height="500" preserveAspectRatio="xMidYMid meet" version="1.0"><defs><clipPath id="c9004a23d6"><path d="M 74.65625 17.601562 L 300.40625 17.601562 L 300.40625 232.851562 L 74.65625 232.851562 Z M 74.65625 17.601562 " clip-rule="nonzero"/></clipPath><clipPath id="44340112cb"><path d="M 131.25 253.457031 L 243.75 253.457031 L 243.75 365.957031 L 131.25 365.957031 Z M 131.25 253.457031 " clip-rule="nonzero"/></clipPath></defs><g clip-path="url(#c9004a23d6)"><path fill="#000000" d="M 90.132812 17.601562 C 89.792969 17.601562 89.460938 17.636719 89.132812 17.703125 C 88.800781 17.765625 88.480469 17.863281 88.167969 17.992188 C 87.859375 18.121094 87.5625 18.28125 87.285156 18.464844 C 87.003906 18.652344 86.746094 18.867188 86.507812 19.105469 C 86.269531 19.34375 86.054688 19.601562 85.867188 19.878906 C 85.683594 20.160156 85.523438 20.457031 85.394531 20.765625 C 85.265625 21.078125 85.167969 21.398438 85.105469 21.726562 C 85.039062 22.058594 85.003906 22.390625 85.003906 22.726562 L 85.003906 42.496094 C 84.800781 43.179688 82.546875 50.660156 80.089844 59.054688 C 78.804688 63.4375 77.515625 67.886719 76.542969 71.375 C 76.058594 73.117188 75.652344 74.617188 75.351562 75.789062 C 75.203125 76.375 75.078125 76.871094 74.984375 77.320312 C 74.886719 77.773438 74.753906 77.761719 74.753906 79.101562 C 74.753906 84.375 76.828125 89.160156 80.140625 92.804688 C 79.957031 93.347656 79.871094 93.90625 79.878906 94.476562 L 79.878906 227.726562 C 79.878906 228.0625 79.910156 228.398438 79.976562 228.726562 C 80.042969 229.058594 80.140625 229.378906 80.269531 229.6875 C 80.398438 230 80.554688 230.296875 80.742188 230.574219 C 80.929688 230.855469 81.140625 231.113281 81.378906 231.351562 C 81.617188 231.589844 81.878906 231.800781 82.15625 231.988281 C 82.4375 232.175781 82.730469 232.332031 83.042969 232.460938 C 83.355469 232.589844 83.675781 232.6875 84.003906 232.753906 C 84.335938 232.820312 84.667969 232.851562 85.003906 232.851562 L 114.902344 232.851562 C 115.460938 232.945312 116.015625 232.945312 116.574219 232.851562 L 186.671875 232.851562 C 187.226562 232.945312 187.785156 232.945312 188.34375 232.851562 L 258.4375 232.851562 C 258.996094 232.945312 259.554688 232.945312 260.109375 232.851562 L 290.058594 232.851562 C 290.394531 232.851562 290.726562 232.820312 291.058594 232.753906 C 291.386719 232.6875 291.707031 232.589844 292.019531 232.460938 C 292.332031 232.332031 292.625 232.175781 292.90625 231.988281 C 293.183594 231.800781 293.445312 231.589844 293.683594 231.351562 C 293.921875 231.113281 294.132812 230.855469 294.320312 230.574219 C 294.507812 230.296875 294.664062 230 294.792969 229.6875 C 294.921875 229.378906 295.019531 229.058594 295.085938 228.726562 C 295.152344 228.398438 295.183594 228.0625 295.183594 227.726562 L 295.183594 94.476562 C 295.191406 93.90625 295.105469 93.347656 294.921875 92.804688 C 298.234375 89.160156 300.308594 84.375 300.308594 79.101562 C 300.308594 77.761719 300.175781 77.773438 300.078125 77.320312 C 299.984375 76.871094 299.859375 76.375 299.710938 75.789062 C 299.410156 74.617188 299.003906 73.117188 298.519531 71.375 C 297.546875 67.886719 296.257812 63.4375 294.972656 59.054688 C 292.515625 50.660156 290.261719 43.179688 290.058594 42.496094 L 290.058594 22.726562 C 290.058594 22.390625 290.023438 22.058594 289.957031 21.726562 C 289.894531 21.398438 289.796875 21.078125 289.667969 20.765625 C 289.539062 20.457031 289.378906 20.160156 289.195312 19.878906 C 289.007812 19.601562 288.792969 19.34375 288.554688 19.105469 C 288.316406 18.867188 288.058594 18.652344 287.777344 18.464844 C 287.5 18.28125 287.203125 18.121094 286.894531 17.992188 C 286.582031 17.863281 286.261719 17.765625 285.929688 17.703125 C 285.601562 17.636719 285.269531 17.601562 284.929688 17.601562 Z M 95.257812 27.851562 L 279.804688 27.851562 L 279.804688 38.101562 L 95.257812 38.101562 Z M 93.957031 48.351562 L 281.105469 48.351562 C 281.871094 50.902344 283.125 55.0625 285.140625 61.9375 C 286.417969 66.296875 287.695312 70.722656 288.644531 74.128906 C 289.121094 75.832031 289.515625 77.277344 289.777344 78.3125 C 289.878906 78.71875 289.941406 78.996094 289.996094 79.242188 C 289.910156 84.886719 285.472656 89.351562 279.804688 89.351562 C 274.082031 89.351562 269.550781 84.824219 269.550781 79.101562 C 269.554688 78.773438 269.523438 78.445312 269.460938 78.121094 C 269.402344 77.796875 269.308594 77.480469 269.1875 77.175781 C 269.0625 76.867188 268.914062 76.578125 268.734375 76.300781 C 268.554688 76.023438 268.351562 75.765625 268.121094 75.527344 C 267.894531 75.289062 267.644531 75.074219 267.375 74.882812 C 267.105469 74.695312 266.820312 74.53125 266.515625 74.398438 C 266.214844 74.261719 265.90625 74.160156 265.582031 74.085938 C 265.261719 74.007812 264.9375 73.964844 264.605469 73.953125 C 264.277344 73.945312 263.949219 73.964844 263.621094 74.015625 C 263.296875 74.066406 262.976562 74.148438 262.667969 74.261719 C 262.359375 74.375 262.0625 74.515625 261.777344 74.6875 C 261.496094 74.859375 261.230469 75.054688 260.988281 75.277344 C 260.742188 75.496094 260.519531 75.738281 260.324219 76.003906 C 260.125 76.269531 259.953125 76.546875 259.808594 76.84375 C 259.667969 77.140625 259.550781 77.449219 259.46875 77.769531 C 259.382812 78.089844 259.332031 78.414062 259.308594 78.742188 C 259.300781 78.863281 259.296875 78.980469 259.300781 79.101562 C 259.300781 84.824219 254.769531 89.351562 249.046875 89.351562 C 243.324219 89.351562 238.792969 84.824219 238.792969 79.101562 C 238.8125 77.851562 238.425781 76.746094 237.632812 75.78125 C 237.527344 75.648438 237.414062 75.527344 237.292969 75.410156 C 236.929688 75.042969 236.515625 74.738281 236.0625 74.5 C 236.058594 74.5 236.054688 74.5 236.050781 74.5 C 235.902344 74.417969 235.746094 74.34375 235.589844 74.277344 C 235.109375 74.085938 234.613281 73.96875 234.097656 73.925781 C 233.929688 73.914062 233.757812 73.90625 233.589844 73.90625 C 233.242188 73.914062 232.902344 73.953125 232.566406 74.027344 C 232.402344 74.0625 232.238281 74.105469 232.074219 74.15625 C 231.917969 74.210938 231.757812 74.269531 231.605469 74.339844 C 231.601562 74.339844 231.597656 74.34375 231.59375 74.347656 C 231.34375 74.457031 231.105469 74.589844 230.875 74.738281 C 230.816406 74.773438 230.761719 74.8125 230.703125 74.847656 C 230.648438 74.894531 230.589844 74.941406 230.535156 74.988281 C 230.320312 75.148438 230.121094 75.328125 229.933594 75.519531 C 229.699219 75.769531 229.492188 76.039062 229.3125 76.328125 C 229.222656 76.472656 229.136719 76.621094 229.0625 76.769531 C 229.0625 76.773438 229.0625 76.777344 229.0625 76.78125 C 228.988281 76.929688 228.921875 77.085938 228.863281 77.242188 C 228.863281 77.246094 228.863281 77.246094 228.863281 77.25 C 228.804688 77.410156 228.753906 77.570312 228.710938 77.730469 C 228.710938 77.734375 228.710938 77.738281 228.710938 77.742188 C 228.667969 77.902344 228.628906 78.066406 228.601562 78.230469 C 228.601562 78.234375 228.601562 78.238281 228.601562 78.242188 C 228.578125 78.40625 228.558594 78.574219 228.550781 78.742188 C 228.550781 78.746094 228.550781 78.75 228.550781 78.753906 C 228.542969 78.867188 228.542969 78.984375 228.542969 79.101562 C 228.542969 84.824219 224.011719 89.351562 218.289062 89.351562 C 212.566406 89.351562 208.035156 84.824219 208.035156 79.101562 C 208.039062 78.933594 208.03125 78.761719 208.015625 78.59375 C 207.925781 77.539062 207.542969 76.605469 206.875 75.789062 C 206.875 75.785156 206.875 75.78125 206.875 75.78125 C 206.433594 75.246094 205.90625 74.820312 205.292969 74.5 C 205.144531 74.417969 204.988281 74.34375 204.832031 74.277344 C 204.351562 74.085938 203.855469 73.96875 203.339844 73.925781 C 203 73.898438 202.660156 73.898438 202.320312 73.9375 C 202.148438 73.960938 201.976562 73.988281 201.808594 74.027344 C 201.476562 74.097656 201.15625 74.203125 200.847656 74.339844 C 200.84375 74.339844 200.839844 74.34375 200.835938 74.347656 C 200.585938 74.457031 200.347656 74.589844 200.117188 74.738281 C 200 74.816406 199.886719 74.902344 199.777344 74.988281 C 199.5625 75.148438 199.363281 75.328125 199.175781 75.519531 C 198.824219 75.890625 198.53125 76.308594 198.304688 76.769531 C 198.304688 76.773438 198.304688 76.777344 198.304688 76.78125 C 198.230469 76.929688 198.164062 77.085938 198.105469 77.242188 C 198.105469 77.246094 198.105469 77.246094 198.105469 77.25 C 198.046875 77.410156 197.996094 77.570312 197.953125 77.730469 C 197.953125 77.734375 197.953125 77.738281 197.953125 77.742188 C 197.910156 77.902344 197.871094 78.066406 197.84375 78.230469 C 197.84375 78.234375 197.84375 78.238281 197.84375 78.242188 C 197.820312 78.40625 197.800781 78.574219 197.792969 78.742188 C 197.792969 78.746094 197.792969 78.75 197.792969 78.753906 C 197.785156 78.867188 197.785156 78.984375 197.785156 79.101562 C 197.785156 84.824219 193.253906 89.351562 187.53125 89.351562 C 181.808594 89.351562 177.277344 84.824219 177.277344 79.101562 C 177.28125 78.933594 177.273438 78.761719 177.257812 78.59375 C 177.167969 77.539062 176.785156 76.605469 176.117188 75.789062 C 176.117188 75.785156 176.117188 75.78125 176.117188 75.78125 C 175.675781 75.246094 175.148438 74.820312 174.535156 74.5 C 174.386719 74.417969 174.230469 74.34375 174.074219 74.277344 C 173.265625 73.949219 172.429688 73.835938 171.5625 73.9375 C 171.390625 73.960938 171.21875 73.988281 171.050781 74.027344 C 170.71875 74.097656 170.398438 74.203125 170.089844 74.339844 C 170.085938 74.339844 170.082031 74.34375 170.078125 74.347656 C 169.828125 74.457031 169.589844 74.589844 169.359375 74.738281 C 169.300781 74.773438 169.246094 74.8125 169.1875 74.847656 C 169.132812 74.894531 169.074219 74.941406 169.019531 74.988281 C 168.390625 75.46875 167.898438 76.0625 167.546875 76.769531 C 167.546875 76.773438 167.546875 76.777344 167.546875 76.78125 C 167.472656 76.929688 167.40625 77.085938 167.347656 77.242188 C 167.347656 77.246094 167.347656 77.246094 167.347656 77.25 C 167.289062 77.410156 167.238281 77.570312 167.195312 77.730469 C 167.195312 77.734375 167.195312 77.738281 167.195312 77.742188 C 167.152344 77.902344 167.113281 78.066406 167.085938 78.230469 C 167.085938 78.234375 167.085938 78.238281 167.085938 78.242188 C 167.0625 78.40625 167.042969 78.574219 167.035156 78.742188 C 167.035156 78.746094 167.035156 78.75 167.035156 78.753906 C 167.027344 78.867188 167.023438 78.984375 167.027344 79.101562 C 167.027344 84.824219 162.496094 89.351562 156.773438 89.351562 C 151.050781 89.351562 146.519531 84.824219 146.519531 79.101562 C 146.523438 78.933594 146.515625 78.761719 146.5 78.59375 C 146.410156 77.539062 146.027344 76.605469 145.359375 75.789062 C 145.359375 75.785156 145.359375 75.78125 145.359375 75.78125 C 144.917969 75.246094 144.390625 74.820312 143.777344 74.5 C 143.628906 74.417969 143.472656 74.34375 143.316406 74.277344 C 142.507812 73.949219 141.671875 73.835938 140.804688 73.9375 C 140.632812 73.960938 140.460938 73.988281 140.292969 74.027344 C 139.960938 74.097656 139.640625 74.203125 139.332031 74.339844 C 139.328125 74.339844 139.324219 74.34375 139.320312 74.347656 C 139.070312 74.457031 138.832031 74.589844 138.601562 74.738281 C 138.542969 74.773438 138.488281 74.8125 138.429688 74.847656 C 138.371094 74.894531 138.316406 74.941406 138.261719 74.988281 C 137.632812 75.46875 137.140625 76.0625 136.789062 76.769531 C 136.789062 76.773438 136.789062 76.777344 136.789062 76.78125 C 136.714844 76.929688 136.648438 77.085938 136.589844 77.242188 C 136.589844 77.246094 136.589844 77.246094 136.589844 77.25 C 136.53125 77.410156 136.480469 77.570312 136.4375 77.730469 C 136.4375 77.734375 136.4375 77.738281 136.4375 77.742188 C 136.394531 77.902344 136.355469 78.066406 136.328125 78.230469 C 136.328125 78.234375 136.328125 78.238281 136.328125 78.242188 C 136.304688 78.40625 136.285156 78.574219 136.277344 78.742188 C 136.277344 78.746094 136.277344 78.75 136.277344 78.753906 C 136.269531 78.867188 136.265625 78.984375 136.269531 79.101562 C 136.269531 84.824219 131.738281 89.351562 126.015625 89.351562 C 120.292969 89.351562 115.761719 84.824219 115.761719 79.101562 C 115.765625 78.933594 115.757812 78.761719 115.742188 78.59375 C 115.652344 77.539062 115.269531 76.605469 114.601562 75.789062 C 114.601562 75.785156 114.601562 75.78125 114.601562 75.78125 C 114.160156 75.246094 113.632812 74.820312 113.019531 74.5 C 112.871094 74.417969 112.714844 74.34375 112.558594 74.277344 C 111.75 73.949219 110.914062 73.835938 110.046875 73.9375 C 109.875 73.960938 109.703125 73.988281 109.535156 74.027344 C 109.203125 74.097656 108.882812 74.203125 108.574219 74.339844 C 108.570312 74.339844 108.566406 74.34375 108.5625 74.347656 C 108.3125 74.457031 108.074219 74.589844 107.84375 74.738281 C 107.785156 74.773438 107.730469 74.8125 107.671875 74.847656 C 107.613281 74.894531 107.558594 74.941406 107.503906 74.988281 C 106.875 75.46875 106.382812 76.0625 106.03125 76.769531 C 106.03125 76.773438 106.03125 76.777344 106.03125 76.78125 C 105.957031 76.929688 105.890625 77.085938 105.832031 77.242188 C 105.832031 77.246094 105.832031 77.246094 105.832031 77.25 C 105.773438 77.410156 105.722656 77.570312 105.679688 77.730469 C 105.679688 77.734375 105.679688 77.738281 105.679688 77.742188 C 105.636719 77.902344 105.597656 78.066406 105.570312 78.230469 C 105.570312 78.234375 105.570312 78.238281 105.570312 78.242188 C 105.546875 78.40625 105.527344 78.574219 105.519531 78.742188 C 105.519531 78.746094 105.519531 78.75 105.519531 78.753906 C 105.511719 78.867188 105.507812 78.984375 105.511719 79.101562 C 105.511719 84.824219 100.980469 89.351562 95.257812 89.351562 C 89.589844 89.351562 85.152344 84.886719 85.066406 79.242188 C 85.121094 78.996094 85.183594 78.71875 85.285156 78.3125 C 85.546875 77.277344 85.941406 75.832031 86.417969 74.128906 C 87.367188 70.722656 88.644531 66.296875 89.921875 61.9375 C 91.9375 55.0625 93.191406 50.902344 93.957031 48.351562 Z M 110.636719 92.484375 C 114.40625 96.804688 119.878906 99.601562 126.015625 99.601562 C 132.152344 99.601562 137.625 96.804688 141.394531 92.484375 C 145.164062 96.804688 150.636719 99.601562 156.773438 99.601562 C 162.910156 99.601562 168.382812 96.804688 172.152344 92.484375 C 175.921875 96.804688 181.394531 99.601562 187.53125 99.601562 C 193.667969 99.601562 199.140625 96.804688 202.910156 92.484375 C 206.679688 96.804688 212.152344 99.601562 218.289062 99.601562 C 224.425781 99.601562 229.898438 96.804688 233.667969 92.484375 C 237.4375 96.804688 242.910156 99.601562 249.046875 99.601562 C 255.183594 99.601562 260.65625 96.804688 264.425781 92.484375 C 268.195312 96.804688 273.667969 99.601562 279.804688 99.601562 C 281.582031 99.601562 283.28125 99.292969 284.929688 98.863281 L 284.929688 222.601562 L 264.425781 222.601562 L 264.425781 120.101562 C 264.425781 119.765625 264.394531 119.433594 264.328125 119.101562 C 264.261719 118.773438 264.164062 118.453125 264.035156 118.140625 C 263.90625 117.832031 263.75 117.535156 263.5625 117.253906 C 263.375 116.976562 263.164062 116.71875 262.925781 116.480469 C 262.6875 116.242188 262.425781 116.027344 262.148438 115.839844 C 261.867188 115.65625 261.574219 115.496094 261.261719 115.367188 C 260.949219 115.238281 260.628906 115.140625 260.300781 115.078125 C 259.96875 115.011719 259.636719 114.976562 259.300781 114.976562 L 188.320312 114.976562 C 188.035156 114.929688 187.742188 114.90625 187.453125 114.90625 C 187.203125 114.914062 186.957031 114.9375 186.710938 114.976562 L 115.761719 114.976562 C 115.425781 114.976562 115.09375 115.011719 114.761719 115.078125 C 114.433594 115.140625 114.113281 115.238281 113.800781 115.367188 C 113.488281 115.496094 113.195312 115.65625 112.914062 115.839844 C 112.636719 116.027344 112.375 116.242188 112.136719 116.480469 C 111.898438 116.71875 111.6875 116.976562 111.5 117.253906 C 111.3125 117.535156 111.15625 117.832031 111.027344 118.140625 C 110.898438 118.453125 110.800781 118.773438 110.734375 119.101562 C 110.667969 119.433594 110.636719 119.765625 110.636719 120.101562 L 110.636719 222.601562 L 90.132812 222.601562 L 90.132812 98.863281 C 91.78125 99.292969 93.480469 99.601562 95.257812 99.601562 C 101.394531 99.601562 106.867188 96.804688 110.636719 92.484375 Z M 120.890625 125.226562 L 182.40625 125.226562 L 182.40625 222.601562 L 120.890625 222.601562 Z M 192.65625 125.226562 L 254.171875 125.226562 L 254.171875 222.601562 L 192.65625 222.601562 Z M 167.027344 166.226562 C 166.6875 166.226562 166.355469 166.261719 166.027344 166.324219 C 165.695312 166.390625 165.375 166.488281 165.0625 166.617188 C 164.753906 166.746094 164.457031 166.90625 164.179688 167.089844 C 163.898438 167.277344 163.640625 167.492188 163.402344 167.730469 C 163.164062 167.964844 162.949219 168.226562 162.761719 168.503906 C 162.578125 168.785156 162.417969 169.082031 162.289062 169.390625 C 162.160156 169.703125 162.0625 170.023438 162 170.351562 C 161.933594 170.683594 161.898438 171.015625 161.898438 171.351562 C 161.898438 171.6875 161.933594 172.023438 162 172.351562 C 162.0625 172.683594 162.160156 173.003906 162.289062 173.3125 C 162.417969 173.625 162.578125 173.921875 162.761719 174.199219 C 162.949219 174.480469 163.164062 174.738281 163.402344 174.976562 C 163.640625 175.214844 163.898438 175.425781 164.179688 175.613281 C 164.457031 175.800781 164.753906 175.957031 165.0625 176.085938 C 165.375 176.214844 165.695312 176.3125 166.027344 176.378906 C 166.355469 176.445312 166.6875 176.476562 167.027344 176.476562 C 167.363281 176.476562 167.695312 176.445312 168.027344 176.378906 C 168.355469 176.3125 168.675781 176.214844 168.988281 176.085938 C 169.296875 175.957031 169.59375 175.800781 169.875 175.613281 C 170.152344 175.425781 170.414062 175.214844 170.652344 174.976562 C 170.890625 174.738281 171.101562 174.480469 171.289062 174.199219 C 171.476562 173.921875 171.632812 173.625 171.761719 173.3125 C 171.890625 173.003906 171.988281 172.683594 172.054688 172.351562 C 172.121094 172.023438 172.152344 171.6875 172.152344 171.351562 C 172.152344 171.015625 172.121094 170.683594 172.054688 170.351562 C 171.988281 170.023438 171.890625 169.703125 171.761719 169.390625 C 171.632812 169.082031 171.476562 168.785156 171.289062 168.503906 C 171.101562 168.226562 170.890625 167.964844 170.652344 167.730469 C 170.414062 167.492188 170.152344 167.277344 169.875 167.089844 C 169.59375 166.90625 169.296875 166.746094 168.988281 166.617188 C 168.675781 166.488281 168.355469 166.390625 168.027344 166.324219 C 167.695312 166.261719 167.363281 166.226562 167.027344 166.226562 Z M 208.035156 166.226562 C 207.699219 166.226562 207.367188 166.261719 207.035156 166.324219 C 206.707031 166.390625 206.386719 166.488281 206.074219 166.617188 C 205.765625 166.746094 205.46875 166.90625 205.1875 167.089844 C 204.910156 167.277344 204.648438 167.492188 204.410156 167.730469 C 204.171875 167.964844 203.960938 168.226562 203.773438 168.503906 C 203.585938 168.785156 203.429688 169.082031 203.300781 169.390625 C 203.171875 169.703125 203.074219 170.023438 203.007812 170.351562 C 202.941406 170.683594 202.910156 171.015625 202.910156 171.351562 C 202.910156 171.6875 202.941406 172.023438 203.007812 172.351562 C 203.074219 172.683594 203.171875 173.003906 203.300781 173.3125 C 203.429688 173.625 203.585938 173.921875 203.773438 174.199219 C 203.960938 174.480469 204.171875 174.738281 204.410156 174.976562 C 204.648438 175.214844 204.910156 175.425781 205.1875 175.613281 C 205.46875 175.800781 205.765625 175.957031 206.074219 176.085938 C 206.386719 176.214844 206.707031 176.3125 207.035156 176.378906 C 207.367188 176.445312 207.699219 176.476562 208.035156 176.476562 C 208.375 176.476562 208.707031 176.445312 209.035156 176.378906 C 209.367188 176.3125 209.6875 176.214844 210 176.085938 C 210.308594 175.957031 210.605469 175.800781 210.882812 175.613281 C 211.164062 175.425781 211.421875 175.214844 211.660156 174.976562 C 211.898438 174.738281 212.113281 174.480469 212.300781 174.199219 C 212.484375 173.921875 212.644531 173.625 212.773438 173.3125 C 212.902344 173.003906 213 172.683594 213.0625 172.351562 C 213.128906 172.023438 213.164062 171.6875 213.164062 171.351562 C 213.164062 171.015625 213.128906 170.683594 213.0625 170.351562 C 213 170.023438 212.902344 169.703125 212.773438 169.390625 C 212.644531 169.082031 212.484375 168.785156 212.300781 168.503906 C 212.113281 168.226562 211.898438 167.964844 211.660156 167.730469 C 211.421875 167.492188 211.164062 167.277344 210.882812 167.089844 C 210.605469 166.90625 210.308594 166.746094 210 166.617188 C 209.6875 166.488281 209.367188 166.390625 209.035156 166.324219 C 208.707031 166.261719 208.375 166.226562 208.035156 166.226562 Z M 208.035156 166.226562 " fill-opacity="1" fill-rule="nonzero"/></g><g clip-path="url(#44340112cb)"><path fill="#000000" d="M 187.5 253.457031 C 156.5625 253.457031 131.25 278.769531 131.25 309.707031 C 131.25 340.644531 156.5625 365.957031 187.5 365.957031 C 218.4375 365.957031 243.75 340.644531 243.75 309.707031 C 243.75 278.769531 218.4375 253.457031 187.5 253.457031 Z M 194.8125 335.582031 L 184.6875 335.582031 L 184.6875 295.644531 L 172.3125 299.582031 L 172.3125 291.144531 L 193.6875 283.269531 L 194.8125 283.269531 Z M 194.8125 335.582031 " fill-opacity="1" fill-rule="nonzero"/></g></svg>